<?xml version="1.0" encoding="utf-8"?>
<!-- Generator: Adobe Illustrator 19.0.0, SVG Export Plug-In . SVG Version: 6.00 Build 0)  -->
<svg version="1.1" id="Camada_1" xmlns="http://www.w3.org/2000/svg" xmlns:xlink="http://www.w3.org/1999/xlink" x="0px" y="0px"
	 viewBox="405 271 51 49" style="enable-background:new 405 271 51 49;" xml:space="preserve">
<style type="text/css">
	.st0{fill:#C23A4B;}
	.st1{opacity:0.81;fill:url(#XMLID_12_);enable-background:new    ;}
	.st2{opacity:0.81;fill:url(#XMLID_13_);enable-background:new    ;}
	.st3{fill:#EDF7F7;}
</style>
<g id="XMLID_9_">
	<path id="XMLID_2_" d="M418.5,312.9L418.5,312.9c-1.5,0-2.7-1.2-2.7-2.7V308c0-1.5,1.2-2.7,2.7-2.7l0,0c1.5,0,2.7,1.2,2.7,2.7v2.3
		C421.1,311.7,419.9,312.9,418.5,312.9z"/>
	<path id="XMLID_3_" d="M440.6,312.9L440.6,312.9c-1.6,0-2.8-1.2-2.8-2.7v-2.3c0-1.5,1.2-2.7,2.7-2.7h0.1c1.5,0,2.7,1.2,2.7,2.7v2.3
		C443.2,311.7,442,312.9,440.6,312.9z"/>
	<path id="XMLID_1_" class="st0" d="M442.5,309h-25.6c-3.8,0-6.8-3.1-6.8-6.8v-1c0-3.8,3.1-6.8,6.8-6.8h25.6c3.8,0,6.8,3.1,6.8,6.8
		v1C449.3,306,446.2,309,442.5,309z"/>
	
		<radialGradient id="XMLID_12_" cx="418.4636" cy="258.1545" r="2.5693" gradientTransform="matrix(1 0 0 -1 0 560)" gradientUnits="userSpaceOnUse">
		<stop  offset="0" style="stop-color:#FEF7B0"/>
		<stop  offset="0.5" style="stop-color:#FEEE00"/>
		<stop  offset="1" style="stop-color:#F6DB00"/>
	</radialGradient>
	<ellipse id="XMLID_4_" class="st1" cx="418.5" cy="301.8" rx="2.7" ry="2.5"/>
	
		<radialGradient id="XMLID_13_" cx="440.4636" cy="258.1545" r="2.5693" gradientTransform="matrix(1 0 0 -1 0 560)" gradientUnits="userSpaceOnUse">
		<stop  offset="0" style="stop-color:#FEF7B0"/>
		<stop  offset="0.5" style="stop-color:#FEEE00"/>
		<stop  offset="1" style="stop-color:#F6DB00"/>
	</radialGradient>
	<ellipse id="XMLID_5_" class="st2" cx="440.5" cy="301.8" rx="2.7" ry="2.5"/>
	<path id="XMLID_6_" class="st0" d="M436.5,297h-14.6c-3.3,0-7.8,0.9-7.8-2l1.8-7.2c1.5-3.1,2.7-4.5,6.1-4.5h14.6
		c3.3,0,5.1,0.8,6.7,4.1l2.1,7.5C445.3,297.9,439.8,297,436.5,297z"/>
	<path id="XMLID_7_" class="st3" d="M434.9,295.1h-11.1c-2.5,0-6,0.6-6-1.3l1.3-4.7c1.1-2.1,2.1-3,4.6-3h11.1c2.5,0,3.9,0.5,5.1,2.7
		l1.6,4.9C441.6,295.7,437.4,295.1,434.9,295.1z"/>
	<path id="XMLID_8_" class="st0" d="M414.9,295.2h-2.2c-0.5,0-0.9-0.4-0.9-0.9l0,0c0-0.5,0.4-0.9,0.9-0.9h2.2c0.5,0,0.9,0.4,0.9,0.9
		l0,0C415.8,294.8,415.4,295.2,414.9,295.2z"/>
	<path id="XMLID_10_" class="st0" d="M446.2,295.2H444c-0.5,0-0.9-0.4-0.9-0.9l0,0c0-0.5,0.4-0.9,0.9-0.9h2.2c0.5,0,0.9,0.4,0.9,0.9
		l0,0C447.1,294.8,446.7,295.2,446.2,295.2z"/>
</g>
</svg>
