<?xml version="1.0" encoding="utf-8"?>
<!-- Generator: Adobe Illustrator 19.0.0, SVG Export Plug-In . SVG Version: 6.00 Build 0)  -->
<svg version="1.1" id="Camada_1" xmlns="http://www.w3.org/2000/svg" xmlns:xlink="http://www.w3.org/1999/xlink" x="0px" y="0px"
	 viewBox="-336 180.6 285.2 188" style="enable-background:new -336 180.6 285.2 188;" xml:space="preserve">
<style type="text/css">
	.st0{fill:#BA4341;}
	.st1{opacity:0.9882;fill:#BA4341;enable-background:new    ;}
	.st2{fill:#030104;fill-opacity:0;}
	.st3{fill:#FFFFFF;}
	.st4{fill:#AD312D;}
</style>
<path d="M-123.8,201.1c7,0,13,2.5,18,7.6c5,5.1,7.5,11.2,7.5,18.5c0,7.2-2.5,13.3-7.4,18.3c-5,5-11,7.5-18.1,7.5
	c-7.4,0-13.6-2.6-18.5-7.7s-7.4-11.2-7.4-18.3c0-4.7,1.1-9.1,3.4-13c2.3-4,5.4-7.1,9.4-9.4C-132.7,202.3-128.4,201.1-123.8,201.1z
	 M-123.9,210.3c-4.6,0-8.4,1.6-11.5,4.8s-4.7,7.2-4.7,12.1c0,5.5,2,9.8,5.9,13c3,2.5,6.5,3.7,10.5,3.7c4.5,0,8.3-1.6,11.4-4.8
	c3.1-3.2,4.7-7.2,4.7-11.9c0-4.7-1.6-8.7-4.7-11.9C-115.5,211.9-119.3,210.3-123.9,210.3z"/>
<path class="st0" d="M-123.2,304.8c-0.2-0.6-5.3-5.7-9-10.3c-21.6-29.4-45.6-56.7-17.5-89.9c12.4-12.3,27.8-13,43.5-7.3
	c44.4,26.4,12.2,69.4-8.8,97.6L-123.2,304.8z M-109.9,259.8c29.6-21.7,6.7-63.6-25.8-49.7c-9.5,5.2-14.2,14.2-14.4,24.9
	c-0.5,10.4,4.9,19.1,13.4,24.4c6.1,3.4,8.8,4,15.7,3.6C-116.4,262.7-113.9,262-109.9,259.8z"/>
<path id="path4129_1_" class="st1" d="M-132,263.8c-21-4.5-34.4-25.2-29.9-46.2c4.5-21.1,25.1-34.5,46.1-30s34.4,25.2,29.9,46.2
	c-4.4,20.7-24.4,34.1-45.2,30.2"/>
<path class="st2" d="M-126.9,248.9c-15.2-2.7-24.9-15.1-21.6-27.6c3.2-12.6,18.2-20.6,33.3-17.9s24.9,15.1,21.6,27.6
	c-3.2,12.4-17.7,20.4-32.6,18"/>
<path class="st3" d="M-322.2,198.5h9.3l11.6,34.6l11.7-34.6h9.3l8.4,49.6h-9.2l-5.4-31.3l-10.6,31.3h-8.4l-10.5-31.3l-5.5,31.3h-9.3
	L-322.2,198.5z"/>
<path class="st3" d="M-264.3,198.5h27.3v9.2h-17.8v9h17.9v9.1h-17.9v13h17.9v9.3h-27.4V198.5z"/>
<path class="st3" d="M-228,198.5h9.5v40.6h13.9v9H-228V198.5z"/>
<path class="st3" d="M-197.4,198.5h9.7v18.7h16.7v-18.7h9.6v49.6h-9.6v-21.8h-16.7V248h-9.7V198.5z"/>
<path class="st3" d="M-86.8,198.5h10.1c5.5,0,9.5,0.5,11.8,1.5s4.2,2.6,5.7,4.9c1.4,2.3,2.1,5,2.1,8.1c0,3.3-0.8,6-2.4,8.2
	c-1.6,2.2-4,3.8-7.1,5l11.9,22h-10.4l-11.3-21h-0.9v21h-9.5L-86.8,198.5L-86.8,198.5z M-77.3,217.9h3c3,0,5.1-0.4,6.3-1.2
	c1.1-0.8,1.7-2.1,1.7-3.9c0-1.1-0.3-2-0.8-2.8c-0.6-0.8-1.3-1.4-2.3-1.7c-0.9-0.3-2.7-0.5-5.2-0.5h-2.6v10.1H-77.3z"/>
<g>
	<path class="st3" d="M-235.7,254.4h11.1c7.2,0,12.5,0.9,16,2.7c3.5,1.8,6.4,4.7,8.6,8.7c2.3,4,3.4,8.7,3.4,14
		c0,3.8-0.6,7.3-1.9,10.5c-1.3,3.2-3,5.8-5.2,7.9c-2.2,2.1-4.6,3.6-7.2,4.4s-7.1,1.2-13.5,1.2h-11.3V254.4z M-226.4,263.5v31.2h4.4
		c4.3,0,7.4-0.5,9.4-1.5c1.9-1,3.5-2.6,4.8-5c1.2-2.3,1.8-5.2,1.8-8.6c0-5.2-1.5-9.3-4.4-12.2c-2.6-2.6-6.9-3.9-12.7-3.9
		C-223.1,263.5-226.4,263.5-226.4,263.5z"/>
	<path class="st3" d="M-175.5,254.4h9.5l19,49.4h-9.8l-3.9-10.2h-20.2l-4,10.2h-9.8L-175.5,254.4z M-170.7,267.5l-6.6,17h13.2
		L-170.7,267.5z"/>
</g>
<g>
	<path class="st3" d="M-282.6,311.2h29.9l-17.6,40.4h16.5v9H-284l17.5-40.1h-16.1V311.2z"/>
	<path class="st3" d="M-225.3,310c7,0,13,2.5,18,7.6s7.5,11.2,7.5,18.5c0,7.2-2.5,13.3-7.4,18.3c-5,5-11,7.5-18.1,7.5
		c-7.4,0-13.6-2.6-18.5-7.7c-4.9-5.1-7.4-11.2-7.4-18.3c0-4.7,1.1-9.1,3.4-13c2.3-4,5.4-7.1,9.4-9.4C-234.3,311.2-230,310-225.3,310
		z M-225.4,319.2c-4.6,0-8.4,1.6-11.5,4.8c-3.1,3.2-4.7,7.2-4.7,12.1c0,5.5,2,9.8,5.9,13c3,2.5,6.5,3.7,10.5,3.7
		c4.5,0,8.3-1.6,11.4-4.8c3.1-3.2,4.7-7.2,4.7-11.9c0-4.7-1.6-8.7-4.7-11.9C-217.1,320.8-220.9,319.2-225.4,319.2z"/>
	<path class="st3" d="M-191.9,311.2h9l21.2,32.5v-32.5h9.4v49.4h-9.1l-21.1-32.4v32.4h-9.4L-191.9,311.2L-191.9,311.2z"/>
	<path class="st3" d="M-128,311.2h9.5l19,49.4h-9.8l-3.9-10.2h-20.2l-4,10.2h-9.6L-128,311.2z M-123.2,324.3l-6.6,17h13.2
		L-123.2,324.3z"/>
</g>
<path class="st4" d="M-122.7,195c8.4,0,15.6,3,21.6,9.1s9,13.4,9,22.2c0,8.6-3,15.9-8.9,21.9s-13.2,9-21.6,9
	c-8.9,0-16.3-3.1-22.1-9.2c-5.9-6.1-8.8-13.4-8.8-21.9c0-5.7,1.4-10.9,4.1-15.6c2.7-4.7,6.5-8.5,11.3-11.3
	C-133.4,196.4-128.3,195-122.7,195z M-122.9,206.1c-5.5,0-10.1,1.9-13.8,5.7s-5.6,8.6-5.6,14.5c0,6.5,2.3,11.7,7,15.5
	c3.6,3,7.8,4.5,12.6,4.5c5.3,0,9.9-1.9,13.6-5.8c3.8-3.9,5.6-8.6,5.6-14.3c0-5.6-1.9-10.4-5.7-14.3
	C-112.8,208-117.4,206.1-122.9,206.1z"/>
<path class="st3" d="M-123.2,199.3c7,0,13,2.5,18.1,7.6c5,5.1,7.6,11.3,7.6,18.6c0,7.2-2.5,13.4-7.5,18.4s-11,7.5-18.1,7.5
	c-7.4,0-13.6-2.6-18.5-7.7s-7.4-11.3-7.4-18.3c0-4.7,1.1-9.1,3.4-13.1c2.3-4,5.4-7.1,9.5-9.5C-132.1,200.5-127.8,199.3-123.2,199.3z
	 M-123.3,208.6c-4.6,0-8.4,1.6-11.6,4.8c-3.1,3.2-4.7,7.2-4.7,12.2c0,5.5,2,9.8,5.9,13c3.1,2.5,6.6,3.7,10.5,3.7
	c4.5,0,8.3-1.6,11.4-4.9s4.7-7.2,4.7-12c0-4.7-1.6-8.7-4.8-12C-114.9,210.2-118.8,208.6-123.3,208.6z"/>
<ellipse cx="-123.3" cy="225.5" rx="16.5" ry="17.6"/>
</svg>
