<?xml version="1.0" encoding="utf-8"?>
<!-- Generator: Adobe Illustrator 19.0.0, SVG Export Plug-In . SVG Version: 6.00 Build 0)  -->
<svg version="1.1" id="Camada_1" xmlns="http://www.w3.org/2000/svg" xmlns:xlink="http://www.w3.org/1999/xlink" x="0px" y="0px"
	 viewBox="-330.5 238.6 165.1 82.6" style="enable-background:new -330.5 238.6 165.1 82.6;" xml:space="preserve">
<style type="text/css">
	.st0{fill:#FFFFFF;}
	.st1{fill:#EEEDED;}
	.st2{fill:#EDECEC;}
	.st3{fill:#ECEBEB;}
	.st4{fill:#EBEAEA;}
	.st5{fill:#EAE9E9;}
	.st6{fill:#E9E8E7;}
	.st7{fill:#E8E7E6;}
	.st8{fill:#E7E6E5;}
	.st9{fill:#E5E5E4;}
	.st10{fill:#E5E4E3;}
	.st11{fill:#E4E3E2;}
	.st12{fill:#E3E2E1;}
	.st13{fill:#E1E1E1;}
	.st14{fill:#E0E0E0;}
	.st15{fill:#DEDEDE;}
	.st16{fill:#DDDDDD;}
	.st17{fill:#DCDCDC;}
	.st18{fill:#DBDBDB;}
	.st19{fill:#DADADA;}
	.st20{fill:#D9D9D9;}
	.st21{fill:#D8D8D8;}
	.st22{fill:#D7D7D7;}
	.st23{fill:#D6D6D6;}
	.st24{fill:#D5D4D5;}
	.st25{fill:#D4D3D4;}
	.st26{fill:#D3D2D3;}
	.st27{fill:#D1D1D2;}
	.st28{fill:#D0D0D1;}
	.st29{fill:#D0CFD0;}
	.st30{fill:#CFCFCF;}
	.st31{fill:#CECECE;}
	.st32{fill:#CDCDCD;}
	.st33{fill:#CCCCCC;}
	.st34{fill:#CBCBCB;}
	.st35{fill:#CACACA;}
	.st36{fill:#CAC9C9;}
	.st37{fill:#C9C8C8;}
	.st38{fill:#C7C7C7;}
	.st39{fill:#C6C6C5;}
	.st40{fill:#C5C5C4;}
	.st41{fill:#C4C4C3;}
	.st42{fill:#C2C2C1;}
	.st43{fill:#C1C1C0;}
	.st44{fill:#C0C0BF;}
	.st45{fill:#BFBFBE;}
	.st46{fill:#BEBEBD;}
	.st47{fill:#BDBDBC;}
	.st48{fill:#BCBCBC;}
	.st49{fill:#BBBBBB;}
	.st50{fill:#BABABA;}
	.st51{fill:#B9B9B9;}
	.st52{fill:#B8B8B8;}
	.st53{fill:#B7B7B7;}
	.st54{fill:#B6B6B6;}
	.st55{fill:#B5B5B5;}
	.st56{fill:#B4B4B4;}
	.st57{fill:#B3B3B3;}
	.st58{fill:#B2B2B2;}
	.st59{fill:#B1B1B1;}
	.st60{fill:#AFAFB0;}
	.st61{fill:#AFAFAE;}
	.st62{fill:#AEAEAE;}
	.st63{fill:#ADADAD;}
	.st64{fill:#ACACAC;}
	.st65{fill:#ABABAB;}
	.st66{fill:#AAAAAA;}
	.st67{fill:#A9A9A9;}
	.st68{fill:#A8A8A8;}
	.st69{fill:#A6A6A6;}
	.st70{fill:#A5A5A5;}
	.st71{fill:#A4A4A4;}
	.st72{fill:#A3A3A3;}
	.st73{fill:#A2A2A2;}
	.st74{fill:#A1A1A1;}
	.st75{fill:#A0A0A0;}
	.st76{fill:#9F9F9F;}
	.st77{fill:#9E9E9E;}
	.st78{fill:#9D9D9D;}
	.st79{fill:#9C9C9C;}
	.st80{fill:#9B9B9B;}
	.st81{fill:#9A9A9A;}
	.st82{fill:#999999;}
	.st83{fill:#E3DCD6;}
	.st84{fill:#A79F93;}
	.st85{fill:#D2C9B8;}
	.st86{fill:#B2ADA9;}
	.st87{fill:#323232;}
	.st88{fill:#A69F92;}
	.st89{fill:url(#SVGID_1_);}
	.st90{fill:#C23A4B;}
	.st91{fill:#9D2737;}
	.st92{fill:#9E2637;}
	.st93{fill:#9F2638;}
	.st94{fill:#9F2738;}
	.st95{fill:#A02738;}
	.st96{fill:#A12838;}
	.st97{fill:#A22839;}
	.st98{fill:#A32839;}
	.st99{fill:#A32939;}
	.st100{fill:#A4293A;}
	.st101{fill:#A52A3A;}
	.st102{fill:#A62A3A;}
	.st103{fill:#A72B3B;}
	.st104{fill:#A82B3B;}
	.st105{fill:#A92B3B;}
	.st106{fill:#AA2B3B;}
	.st107{fill:#AA2C3C;}
	.st108{fill:#AB2C3C;}
	.st109{fill:#AC2C3C;}
	.st110{fill:#AD2D3D;}
	.st111{fill:#AE2D3D;}
	.st112{fill:#AF2D3D;}
	.st113{fill:#B02E3D;}
	.st114{fill:#B02E3E;}
	.st115{fill:#B12E3E;}
	.st116{fill:#B22E3E;}
	.st117{fill:#B22F3F;}
	.st118{fill:#B32F3F;}
	.st119{fill:#B42F3F;}
	.st120{fill:#B52F40;}
	.st121{fill:#B62F40;}
	.st122{fill:#B73040;}
	.st123{fill:#B83040;}
	.st124{fill:#B93040;}
	.st125{fill:#BA3040;}
	.st126{fill:#BB3141;}
	.st127{fill:#BC3141;}
	.st128{fill:#BD3041;}
	.st129{fill:#BD3042;}
	.st130{fill:#BE3142;}
	.st131{fill:#BF3142;}
	.st132{fill:#C03143;}
	.st133{fill:#C13243;}
	.st134{fill:#C23343;}
	.st135{fill:#C23345;}
	.st136{fill:#C23445;}
	.st137{fill:#C23545;}
	.st138{fill:#C23546;}
	.st139{fill:#C23647;}
	.st140{fill:#C23747;}
	.st141{fill:#C23748;}
	.st142{fill:#C23848;}
	.st143{fill:#C23849;}
	.st144{fill:#C2394A;}
	.st145{fill:#C23A4A;}
	.st146{fill:#211915;}
</style>
<g>
	<polygon class="st0" points="-308.2,251.8 -330.1,315.7 -274.9,302.9 -226.7,318.6 -165.8,309.7 -185.8,247 -232.2,253 -268.2,239 
			"/>
	<g>
		<polygon class="st1" points="-330.1,315.7 -224.4,318.5 -206.8,270.4 -286.7,272.9 		"/>
		<path class="st2" d="M-330.1,315.7c35,0.9,69.9,1.8,104.9,2.7c5.9-16,11.8-32,17.7-48c-26.4,0.9-52.8,1.7-79.2,2.6
			C-301.1,287.2-315.5,301.5-330.1,315.7z"/>
		<path class="st3" d="M-330.1,315.7c34.7,0.8,69.4,1.6,104.1,2.5c5.9-16,11.8-31.9,17.8-47.9c-26.1,0.9-52.3,1.8-78.4,2.6
			C-301.1,287.2-315.5,301.5-330.1,315.7z"/>
		<path class="st4" d="M-330.1,315.7c34.5,0.8,68.8,1.5,103.3,2.3c5.9-15.9,11.9-31.8,17.8-47.8c-25.9,0.9-51.9,1.8-77.8,2.7
			C-301.1,287.2-315.5,301.5-330.1,315.7z"/>
		<path class="st5" d="M-330.1,315.7c34.2,0.7,68.3,1.4,102.5,2.2c6-15.9,12-31.8,17.9-47.6c-25.7,0.9-51.3,1.8-77.1,2.7
			C-301.1,287.2-315.5,301.5-330.1,315.7z"/>
		<path class="st6" d="M-330.1,315.7c33.9,0.7,67.8,1.3,101.8,2c6-15.8,12-31.7,18.1-47.5c-25.5,0.9-50.9,1.8-76.4,2.7
			C-301.1,287.2-315.5,301.5-330.1,315.7z"/>
		<path class="st7" d="M-330.1,315.7c33.7,0.6,67.3,1.2,101,1.9c6.1-15.8,12.1-31.6,18.1-47.4c-25.2,0.9-50.5,1.8-75.7,2.7
			C-301.1,287.2-315.5,301.5-330.1,315.7z"/>
		<path class="st8" d="M-330.1,315.7c33.4,0.6,66.8,1.1,100.2,1.7c6.1-15.7,12.1-31.5,18.2-47.2c-25,0.9-50,1.8-75,2.7
			C-301.1,287.2-315.5,301.5-330.1,315.7z"/>
		<path class="st9" d="M-330.1,315.7c33.1,0.5,66.2,1,99.4,1.6c6.1-15.7,12.2-31.4,18.3-47.1c-24.8,0.9-49.5,1.8-74.3,2.7
			C-301.1,287.2-315.5,301.5-330.1,315.7z"/>
		<path class="st10" d="M-330.1,315.7c32.9,0.5,65.7,0.9,98.6,1.4c6.1-15.7,12.3-31.3,18.4-47c-24.6,0.9-49.1,1.8-73.7,2.8
			C-301.1,287.2-315.5,301.5-330.1,315.7z"/>
		<path class="st11" d="M-330.1,315.7c32.6,0.4,65.2,0.8,97.8,1.3c6.1-15.6,12.4-31.2,18.5-46.8c-24.3,0.9-48.6,1.9-72.9,2.8
			C-301.1,287.2-315.5,301.5-330.1,315.7z"/>
		<path class="st12" d="M-330.1,315.7c32.4,0.4,64.7,0.7,97.1,1.1c6.2-15.6,12.4-31.1,18.6-46.7c-24.1,0.9-48.2,1.9-72.2,2.8
			C-301.1,287.2-315.5,301.5-330.1,315.7z"/>
		<path class="st13" d="M-330.1,315.7c32.1,0.3,64.2,0.6,96.3,1c6.2-15.5,12.4-31.1,18.7-46.6c-23.8,0.9-47.7,1.9-71.6,2.8
			C-301.1,287.2-315.5,301.5-330.1,315.7z"/>
		<path class="st14" d="M-330.1,315.7c31.9,0.3,63.6,0.5,95.5,0.8c6.3-15.5,12.5-31,18.8-46.5c-23.6,0.9-47.2,1.9-70.9,2.8
			C-301.1,287.2-315.5,301.5-330.1,315.7z"/>
		<path class="st15" d="M-330.1,315.7c31.6,0.2,63.1,0.4,94.7,0.7c6.3-15.4,12.6-30.9,18.9-46.3c-23.4,1-46.8,1.9-70.2,2.9
			C-301.1,287.2-315.5,301.5-330.1,315.7z"/>
		<path class="st16" d="M-330.1,315.7c31.3,0.2,62.6,0.3,93.9,0.5c6.3-15.4,12.6-30.8,18.9-46.2c-23.2,1-46.4,1.9-69.5,2.9
			C-301.1,287.2-315.5,301.5-330.1,315.7z"/>
		<path class="st17" d="M-330.1,315.7c31.1,0.1,62.1,0.2,93.2,0.4c6.4-15.4,12.7-30.7,19.1-46.1c-23,1-45.9,1.9-68.8,2.9
			C-301.1,287.2-315.5,301.5-330.1,315.7z"/>
		<path class="st18" d="M-330.1,315.7c30.8,0.1,61.6,0.1,92.4,0.2c6.4-15.3,12.8-30.6,19.1-45.9c-22.7,1-45.4,2-68.1,2.9
			C-301.1,287.2-315.5,301.5-330.1,315.7z"/>
		<path class="st19" d="M-330.1,315.7c30.5,0,61,0.1,91.6,0.1c6.4-15.3,12.8-30.5,19.2-45.8c-22.5,1-44.9,2-67.5,2.9
			C-301.1,287.2-315.5,301.5-330.1,315.7z"/>
		<path class="st20" d="M-330.1,315.7c30.3,0,60.5,0,90.8-0.1c6.4-15.2,12.9-30.5,19.3-45.7c-22.2,1-44.5,2-66.7,3
			C-301.1,287.2-315.5,301.5-330.1,315.7z"/>
		<path class="st21" d="M-330.1,315.7c30-0.1,60-0.1,90-0.2c6.5-15.2,12.9-30.4,19.4-45.6c-22,1-44.1,2-66.1,3
			C-301.1,287.2-315.5,301.5-330.1,315.7z"/>
		<path class="st22" d="M-330.1,315.7c29.8-0.1,59.5-0.2,89.3-0.3c6.5-15.1,13-30.3,19.5-45.4c-21.8,1-43.6,2-65.4,3
			C-301.1,287.2-315.5,301.5-330.1,315.7z"/>
		<path class="st23" d="M-330.1,315.7c29.5-0.2,59-0.3,88.5-0.5c6.5-15.1,13.1-30.2,19.6-45.3c-21.6,1-43.1,2-64.7,3
			C-301.1,287.2-315.5,301.5-330.1,315.7z"/>
		<path class="st24" d="M-330.1,315.7c29.2-0.2,58.4-0.4,87.7-0.7c6.6-15.1,13.1-30.1,19.7-45.2c-21.3,1-42.7,2-64,3
			C-301.1,287.2-315.5,301.5-330.1,315.7z"/>
		<path class="st25" d="M-330.1,315.7c29-0.3,57.9-0.5,86.9-0.8c6.6-15,13.2-30,19.8-45c-21.1,1-42.2,2-63.3,3.1
			C-301.1,287.2-315.5,301.5-330.1,315.7z"/>
		<path class="st26" d="M-330.1,315.7c28.7-0.3,57.4-0.6,86.1-1c6.6-15,13.2-29.9,19.9-44.9c-20.9,1-41.7,2.1-62.6,3.1
			C-301.1,287.2-315.5,301.5-330.1,315.7z"/>
		<path class="st27" d="M-330.1,315.7c28.5-0.3,56.9-0.7,85.4-1.1c6.6-14.9,13.3-29.9,19.9-44.8c-20.7,1-41.3,2.1-61.9,3.1
			C-301.1,287.2-315.5,301.5-330.1,315.7z"/>
		<path class="st28" d="M-330.1,315.7c28.2-0.4,56.3-0.8,84.6-1.3c6.7-14.9,13.4-29.8,20.1-44.6c-20.4,1-40.8,2.1-61.2,3.1
			C-301.1,287.2-315.5,301.5-330.1,315.7z"/>
		<path class="st29" d="M-330.1,315.7c28-0.5,55.8-0.9,83.8-1.4c6.7-14.8,13.4-29.7,20.1-44.5c-20.1,1-40.4,2.1-60.5,3.1
			C-301.1,287.2-315.5,301.5-330.1,315.7z"/>
		<path class="st30" d="M-330.1,315.7c27.7-0.5,55.3-1,83-1.6c6.7-14.8,13.5-29.6,20.2-44.4c-19.9,1.1-39.9,2.1-59.9,3.2
			C-301.1,287.2-315.5,301.5-330.1,315.7z"/>
		<path class="st31" d="M-330.1,315.7c27.4-0.6,54.8-1.1,82.2-1.7c6.8-14.8,13.6-29.5,20.3-44.3c-19.7,1.1-39.4,2.1-59.2,3.2
			C-301.1,287.2-315.5,301.5-330.1,315.7z"/>
		<path class="st32" d="M-330.1,315.7c27.2-0.6,54.3-1.2,81.4-1.9c6.8-14.7,13.6-29.4,20.4-44.1c-19.5,1.1-39,2.1-58.5,3.2
			C-301.1,287.2-315.5,301.5-330.1,315.7z"/>
		<path class="st33" d="M-330.1,315.7c26.9-0.7,53.7-1.3,80.7-2c6.9-14.7,13.6-29.3,20.5-44c-19.3,1.1-38.6,2.1-57.8,3.2
			C-301.1,287.2-315.5,301.5-330.1,315.7z"/>
		<path class="st34" d="M-330.1,315.7c26.6-0.7,53.2-1.4,79.9-2.2c6.9-14.6,13.7-29.2,20.6-43.9c-19.1,1.1-38.1,2.2-57.1,3.2
			C-301.1,287.2-315.5,301.5-330.1,315.7z"/>
		<path class="st35" d="M-330.1,315.7c26.4-0.8,52.7-1.5,79.1-2.3c6.9-14.6,13.8-29.2,20.7-43.7c-18.8,1.1-37.6,2.2-56.4,3.3
			C-301.1,287.2-315.5,301.5-330.1,315.7z"/>
		<path class="st36" d="M-330.1,315.7c26.1-0.8,52.2-1.6,78.3-2.5c6.9-14.5,13.9-29.1,20.8-43.6c-18.6,1.1-37.1,2.2-55.8,3.3
			C-301.1,287.2-315.5,301.5-330.1,315.7z"/>
		<path class="st37" d="M-330.1,315.7c25.9-0.9,51.7-1.7,77.5-2.6c6.9-14.5,13.9-29,20.9-43.5c-18.3,1.1-36.7,2.2-55,3.3
			C-301.1,287.2-315.5,301.5-330.1,315.7z"/>
		<path class="st38" d="M-330.1,315.7c25.6-0.9,51.1-1.8,76.8-2.8c7-14.5,14-28.9,20.9-43.4c-18.1,1.1-36.3,2.2-54.4,3.3
			C-301.1,287.2-315.5,301.5-330.1,315.7z"/>
		<path class="st39" d="M-330.1,315.7c25.4-1,50.6-1.9,76-2.9c7-14.4,14-28.8,21.1-43.2c-17.9,1.1-35.8,2.2-53.7,3.3
			C-301.1,287.2-315.5,301.5-330.1,315.7z"/>
		<path class="st40" d="M-330.1,315.7c25.1-1,50.1-2,75.2-3.1c7.1-14.4,14.1-28.7,21.2-43.1c-17.6,1.1-35.3,2.2-52.9,3.4
			C-301.1,287.2-315.5,301.5-330.1,315.7z"/>
		<path class="st41" d="M-330.1,315.7c24.8-1.1,49.6-2.1,74.4-3.2c7.1-14.3,14.2-28.6,21.2-43c-17.4,1.1-34.9,2.3-52.3,3.4
			C-301.1,287.2-315.5,301.5-330.1,315.7z"/>
		<path class="st42" d="M-330.1,315.7c24.6-1.1,49.1-2.2,73.6-3.4c7.1-14.3,14.2-28.6,21.3-42.8c-17.2,1.1-34.4,2.3-51.6,3.4
			C-301.1,287.2-315.5,301.5-330.1,315.7z"/>
		<path class="st43" d="M-330.1,315.7c24.3-1.2,48.5-2.3,72.9-3.5c7.1-14.2,14.3-28.5,21.4-42.7c-17,1.1-33.9,2.3-50.9,3.4
			C-301.1,287.2-315.5,301.5-330.1,315.7z"/>
		<path class="st44" d="M-330.1,315.7c24-1.2,48-2.4,72.1-3.7c7.1-14.2,14.4-28.4,21.5-42.6c-16.8,1.1-33.5,2.3-50.2,3.4
			C-301.1,287.2-315.5,301.5-330.1,315.7z"/>
		<path class="st45" d="M-330.1,315.7c23.8-1.3,47.5-2.5,71.3-3.8c7.2-14.1,14.4-28.3,21.6-42.4c-16.5,1.2-33,2.3-49.5,3.5
			C-301.1,287.2-315.5,301.5-330.1,315.7z"/>
		<path class="st46" d="M-330.1,315.7c23.5-1.3,47-2.6,70.5-4c7.2-14.1,14.4-28.2,21.7-42.3c-16.3,1.2-32.6,2.3-48.8,3.5
			C-301.1,287.2-315.5,301.5-330.1,315.7z"/>
		<path class="st47" d="M-330.1,315.7c23.3-1.3,46.5-2.7,69.8-4.1c7.3-14.1,14.5-28.1,21.8-42.2c-16,1.2-32.1,2.3-48.2,3.5
			C-301.1,287.2-315.5,301.5-330.1,315.7z"/>
		<path class="st48" d="M-330.1,315.7c23-1.4,45.9-2.8,69-4.3c7.3-14,14.6-28,21.9-42.1c-15.8,1.2-31.6,2.3-47.5,3.5
			C-301.1,287.2-315.5,301.5-330.1,315.7z"/>
		<path class="st49" d="M-330.1,315.7c22.8-1.5,45.4-2.9,68.2-4.4c7.3-14,14.7-27.9,22-41.9c-15.6,1.2-31.2,2.4-46.8,3.5
			C-301.1,287.2-315.5,301.5-330.1,315.7z"/>
		<path class="st50" d="M-330.1,315.7c22.5-1.5,44.9-3,67.4-4.6c7.4-13.9,14.7-27.9,22.1-41.8c-15.4,1.3-30.7,2.5-46.1,3.6
			C-301.1,287.2-315.5,301.5-330.1,315.7z"/>
		<path class="st51" d="M-330.1,315.7c22.2-1.6,44.4-3.1,66.6-4.7c7.4-13.9,14.8-27.8,22.2-41.7c-15.2,1.2-30.3,2.4-45.4,3.6
			C-301.1,287.2-315.5,301.5-330.1,315.7z"/>
		<path class="st52" d="M-330.1,315.7c22-1.6,43.9-3.2,65.8-4.9c7.4-13.8,14.8-27.7,22.2-41.5c-14.8,1.3-29.8,2.5-44.6,3.6
			C-301.1,287.2-315.5,301.5-330.1,315.7z"/>
		<path class="st53" d="M-330.1,315.7c21.7-1.7,43.3-3.3,65.1-5c7.4-13.8,14.9-27.6,22.3-41.4c-14.7,1.2-29.3,2.4-44.1,3.6
			C-301.1,287.2-315.5,301.5-330.1,315.7z"/>
		<path class="st54" d="M-330.1,315.7c21.5-1.7,42.8-3.4,64.3-5.1c7.5-13.8,15-27.5,22.5-41.3c-14.4,1.2-28.9,2.4-43.3,3.6
			C-301.1,287.2-315.5,301.5-330.1,315.7z"/>
		<path class="st55" d="M-330.1,315.7c21.2-1.8,42.3-3.5,63.5-5.3c7.5-13.7,15-27.4,22.5-41.1c-14.2,1.2-28.5,2.4-42.6,3.7
			C-301.1,287.2-315.5,301.5-330.1,315.7z"/>
		<path class="st56" d="M-330.1,315.7c20.9-1.8,41.8-3.6,62.7-5.4c7.5-13.7,15.1-27.3,22.6-41c-14,1.2-28,2.4-42,3.7
			C-301.1,287.2-315.5,301.5-330.1,315.7z"/>
		<path class="st57" d="M-330.1,315.7c20.7-1.9,41.3-3.7,61.9-5.6c7.6-13.6,15.2-27.3,22.8-40.9c-13.7,1.2-27.5,2.5-41.2,3.7
			C-301.1,287.2-315.5,301.5-330.1,315.7z"/>
		<path class="st58" d="M-330.1,315.7c20.4-1.9,40.7-3.8,61.1-5.7c7.6-13.6,15.2-27.2,22.8-40.8c-13.5,1.2-27.1,2.5-40.6,3.7
			C-301.1,287.2-315.5,301.5-330.1,315.7z"/>
		<path class="st59" d="M-330.1,315.7c20.1-2,40.2-3.9,60.4-5.9c7.7-13.5,15.2-27.1,22.9-40.6c-13.3,1.2-26.6,2.5-39.9,3.7
			C-301.1,287.2-315.5,301.5-330.1,315.7z"/>
		<path class="st60" d="M-330.1,315.7c19.9-2,39.7-4,59.6-6c7.7-13.5,15.3-27,23-40.5c-13.1,1.3-26.1,2.5-39.2,3.8
			C-301.1,287.2-315.5,301.5-330.1,315.7z"/>
		<path class="st61" d="M-330.1,315.7c19.6-2,39.2-4.1,58.8-6.2c7.7-13.5,15.4-26.9,23.1-40.4c-12.9,1.3-25.7,2.5-38.5,3.8
			C-301.1,287.2-315.5,301.5-330.1,315.7z"/>
		<path class="st62" d="M-330.1,315.7c19.4-2.1,38.7-4.2,58.1-6.3c7.7-13.4,15.5-26.8,23.2-40.2c-12.6,1.3-25.2,2.5-37.8,3.8
			C-301.1,287.2-315.5,301.5-330.1,315.7z"/>
		<path class="st63" d="M-330.1,315.7c19.1-2.2,38.1-4.3,57.2-6.5c7.7-13.4,15.5-26.7,23.3-40.1c-12.3,1.3-24.8,2.5-37.1,3.8
			C-301.1,287.2-315.5,301.5-330.1,315.7z"/>
		<path class="st64" d="M-330.1,315.7c18.9-2.2,37.6-4.4,56.5-6.6c7.8-13.3,15.6-26.7,23.3-40c-12.1,1.3-24.3,2.6-36.5,3.8
			C-301.1,287.2-315.5,301.5-330.1,315.7z"/>
		<path class="st65" d="M-330.1,315.7c18.6-2.3,37.1-4.5,55.7-6.8c7.8-13.3,15.6-26.6,23.5-39.9c-11.9,1.3-23.8,2.6-35.8,3.9
			C-301.1,287.2-315.5,301.5-330.1,315.7z"/>
		<path class="st66" d="M-330.1,315.7c18.3-2.3,36.6-4.6,54.9-6.9c7.9-13.2,15.7-26.5,23.5-39.7c-11.7,1.3-23.4,2.6-35.1,3.9
			C-301.1,287.2-315.5,301.5-330.1,315.7z"/>
		<path class="st67" d="M-330.1,315.7c18.1-2.4,36-4.7,54.1-7.1c7.9-13.2,15.7-26.4,23.6-39.6c-11.5,1.3-22.9,2.6-34.4,3.9
			C-301.1,287.2-315.5,301.5-330.1,315.7z"/>
		<path class="st68" d="M-330.1,315.7c17.8-2.4,35.5-4.8,53.3-7.2c7.9-13.2,15.8-26.3,23.8-39.5c-11.3,1.3-22.5,2.6-33.7,3.9
			C-301.1,287.2-315.5,301.5-330.1,315.7z"/>
		<path class="st69" d="M-330.1,315.7c17.5-2.5,35-4.9,52.6-7.4c7.9-13.1,15.9-26.2,23.8-39.3c-11,1.3-22,2.6-33,3.9
			C-301.1,287.2-315.5,301.5-330.1,315.7z"/>
		<path class="st70" d="M-330.1,315.7c17.3-2.5,34.5-5,51.8-7.5c7.9-13.1,16-26.1,23.9-39.2c-10.8,1.3-21.5,2.6-32.3,3.9
			C-301.1,287.2-315.5,301.5-330.1,315.7z"/>
		<path class="st71" d="M-330.1,315.7c17-2.6,34-5.1,51-7.7c8-13,16-26,24-39.1c-10.5,1.3-21.1,2.6-31.6,4
			C-301.1,287.2-315.5,301.5-330.1,315.7z"/>
		<path class="st72" d="M-330.1,315.7c16.8-2.6,33.4-5.2,50.2-7.8c8-13,16-26,24.1-38.9c-10.3,1.3-20.7,2.7-30.9,4
			C-301.1,287.2-315.5,301.5-330.1,315.7z"/>
		<path class="st73" d="M-330.1,315.7c16.5-2.7,32.9-5.3,49.4-8c8.1-12.9,16.1-25.9,24.2-38.8c-10.1,1.3-20.1,2.7-30.3,4
			C-301.1,287.2-315.5,301.5-330.1,315.7z"/>
		<path class="st74" d="M-330.1,315.7c16.2-2.7,32.4-5.4,48.7-8.1c8.1-12.9,16.2-25.8,24.3-38.7c-9.8,1.3-19.7,2.7-29.5,4
			C-301.1,287.2-315.5,301.5-330.1,315.7z"/>
		<path class="st75" d="M-330.1,315.7c16-2.8,31.9-5.5,47.9-8.3c8.2-12.8,16.3-25.6,24.4-38.5c-9.6,1.3-19.2,2.7-28.9,4
			C-301.1,287.2-315.5,301.5-330.1,315.7z"/>
		<path class="st76" d="M-330.1,315.7c15.7-2.8,31.4-5.6,47.1-8.4c8.2-12.8,16.3-25.6,24.5-38.4c-9.4,1.4-18.8,2.7-28.2,4.1
			C-301.1,287.2-315.5,301.5-330.1,315.7z"/>
		<path class="st77" d="M-330.1,315.7c15.5-2.9,30.8-5.7,46.3-8.6c8.2-12.8,16.4-25.5,24.6-38.3c-9.2,1.4-18.3,2.7-27.5,4.1
			C-301.1,287.2-315.5,301.5-330.1,315.7z"/>
		<path class="st78" d="M-330.1,315.7c15.2-2.9,30.3-5.8,45.5-8.7c8.2-12.7,16.5-25.4,24.7-38.2c-9,1.4-17.8,2.7-26.8,4.1
			C-301.1,287.2-315.5,301.5-330.1,315.7z"/>
		<path class="st79" d="M-330.1,315.7c14.9-3,29.8-5.9,44.8-8.9c8.2-12.7,16.5-25.4,24.8-38c-8.7,1.4-17.4,2.8-26.1,4.1
			C-301.1,287.2-315.5,301.5-330.1,315.7z"/>
		<path class="st80" d="M-330.1,315.7c14.7-3,29.3-6,44-9c8.3-12.6,16.5-25.3,24.8-37.9c-8.5,1.4-17,2.8-25.4,4.1
			C-301.1,287.2-315.5,301.5-330.1,315.7z"/>
		<path class="st81" d="M-330.1,315.7c14.4-3,28.8-6.1,43.2-9.1c8.3-12.6,16.6-25.2,24.9-37.8c-8.2,1.4-16.5,2.8-24.8,4.2
			C-301.1,287.2-315.5,301.5-330.1,315.7z"/>
		<polygon class="st82" points="-330.1,315.7 -287.7,306.4 -262.6,268.8 -286.7,272.9 		"/>
	</g>
	<g>
		<polygon class="st1" points="-226.7,318.9 -168.9,321.2 -180.6,290.1 -222.3,291.4 		"/>
		<path class="st2" d="M-226.7,318.9c19.1,0.7,38.3,1.5,57.4,2.2c-3.9-10.3-7.8-20.7-11.7-31c-13.8,0.4-27.5,0.9-41.3,1.3
			C-223.8,300.6-225.3,309.8-226.7,318.9z"/>
		<path class="st3" d="M-226.7,318.9c19,0.7,38,1.4,56.9,2.1c-3.9-10.3-7.7-20.6-11.6-30.9c-13.6,0.4-27.3,0.9-40.9,1.3
			C-223.8,300.6-225.3,309.8-226.7,318.9z"/>
		<path class="st4" d="M-226.7,318.9c18.9,0.7,37.6,1.3,56.5,2c-3.8-10.3-7.7-20.6-11.5-30.9c-13.5,0.4-27,0.9-40.6,1.3
			C-223.8,300.6-225.3,309.8-226.7,318.9z"/>
		<path class="st5" d="M-226.7,318.9c18.6,0.6,37.3,1.3,56,1.9c-3.8-10.3-7.6-20.5-11.4-30.8c-13.4,0.5-26.8,0.9-40.2,1.4
			C-223.8,300.6-225.3,309.8-226.7,318.9z"/>
		<path class="st6" d="M-226.7,318.9c18.5,0.6,37,1.2,55.5,1.8c-3.8-10.2-7.5-20.5-11.3-30.7c-13.3,0.5-26.5,0.9-39.8,1.4
			C-223.8,300.6-225.3,309.8-226.7,318.9z"/>
		<path class="st7" d="M-226.7,318.9c18.3,0.6,36.7,1.1,55,1.7c-3.8-10.2-7.4-20.4-11.2-30.6c-13.1,0.5-26.3,0.9-39.4,1.4
			C-223.8,300.6-225.3,309.8-226.7,318.9z"/>
		<path class="st8" d="M-226.7,318.9c18.2,0.5,36.3,1.1,54.5,1.6c-3.7-10.2-7.4-20.3-11.1-30.5c-13,0.5-26,0.9-39.1,1.4
			C-223.8,300.6-225.3,309.8-226.7,318.9z"/>
		<path class="st9" d="M-226.7,318.9c18,0.5,36,1,54,1.5c-3.7-10.1-7.3-20.3-11-30.4c-12.9,0.5-25.8,0.9-38.6,1.4
			C-223.8,300.6-225.3,309.8-226.7,318.9z"/>
		<path class="st10" d="M-226.7,318.9c17.8,0.5,35.7,0.9,53.5,1.4c-3.6-10.1-7.2-20.2-10.8-30.3c-12.8,0.5-25.5,1-38.3,1.4
			C-223.8,300.6-225.3,309.8-226.7,318.9z"/>
		<path class="st11" d="M-226.7,318.9c17.7,0.4,35.4,0.9,53.1,1.3c-3.6-10.1-7.1-20.2-10.8-30.3c-12.6,0.5-25.3,1-37.9,1.5
			C-223.8,300.6-225.3,309.8-226.7,318.9z"/>
		<path class="st12" d="M-226.7,318.9c17.6,0.4,35,0.8,52.6,1.2c-3.5-10.1-7.1-20.1-10.6-30.2c-12.5,0.5-25,1-37.6,1.5
			C-223.8,300.6-225.3,309.8-226.7,318.9z"/>
		<path class="st13" d="M-226.7,318.9c17.3,0.4,34.7,0.7,52.1,1.1c-3.5-10-7-20.1-10.5-30.1c-12.4,0.5-24.8,1-37.1,1.5
			C-223.8,300.6-225.3,309.8-226.7,318.9z"/>
		<path class="st14" d="M-226.7,318.9c17.2,0.3,34.4,0.7,51.6,1c-3.5-10-6.9-20-10.4-30c-12.3,0.5-24.6,1-36.8,1.5
			C-223.8,300.6-225.3,309.8-226.7,318.9z"/>
		<path class="st15" d="M-226.7,318.9c17,0.3,34.1,0.6,51.1,0.9c-3.5-10-6.9-19.9-10.3-29.9c-12.1,0.5-24.3,1-36.4,1.5
			C-223.8,300.6-225.3,309.8-226.7,318.9z"/>
		<path class="st16" d="M-226.7,318.9c16.9,0.3,33.7,0.5,50.6,0.8c-3.4-9.9-6.8-19.9-10.2-29.8c-12,0.5-24.1,1-36,1.5
			C-223.8,300.6-225.3,309.8-226.7,318.9z"/>
		<path class="st17" d="M-226.7,318.9c16.7,0.2,33.4,0.5,50.1,0.7c-3.4-9.9-6.7-19.8-10.1-29.8c-11.9,0.5-23.8,1-35.7,1.6
			C-223.8,300.6-225.3,309.8-226.7,318.9z"/>
		<path class="st18" d="M-226.7,318.9c16.5,0.2,33.1,0.4,49.7,0.6c-3.3-9.9-6.6-19.8-10-29.7c-11.8,0.5-23.5,1-35.2,1.6
			C-223.8,300.6-225.3,309.8-226.7,318.9z"/>
		<path class="st19" d="M-226.7,318.9c16.4,0.2,32.8,0.3,49.2,0.5c-3.3-9.9-6.6-19.7-9.9-29.6c-11.6,0.5-23.3,1.1-34.9,1.6
			C-223.8,300.6-225.3,309.8-226.7,318.9z"/>
		<path class="st20" d="M-226.7,318.9c16.3,0.1,32.4,0.3,48.7,0.4c-3.3-9.8-6.5-19.7-9.8-29.5c-11.5,0.5-23,1.1-34.5,1.6
			C-223.8,300.6-225.3,309.8-226.7,318.9z"/>
		<path class="st21" d="M-226.7,318.9c16,0.1,32.1,0.2,48.2,0.3c-3.2-9.8-6.4-19.6-9.7-29.4c-11.4,0.5-22.8,1.1-34.2,1.6
			C-223.8,300.6-225.3,309.8-226.7,318.9z"/>
		<path class="st22" d="M-226.7,318.9c15.9,0.1,31.8,0.1,47.7,0.2c-3.2-9.8-6.4-19.6-9.6-29.3c-11.3,0.5-22.5,1.1-33.7,1.6
			C-223.8,300.6-225.3,309.8-226.7,318.9z"/>
		<path class="st23" d="M-226.7,318.9c15.7,0,31.5,0.1,47.2,0.1c-3.2-9.7-6.3-19.5-9.5-29.2c-11.1,0.5-22.2,1.1-33.4,1.6
			C-223.8,300.6-225.3,309.8-226.7,318.9z"/>
		<path class="st24" d="M-226.7,318.9c15.6,0,31.2,0,46.7,0c-3.1-9.7-6.2-19.4-9.4-29.2c-11,0.6-22,1.1-33,1.7
			C-223.8,300.6-225.3,309.8-226.7,318.9z"/>
		<path class="st25" d="M-226.7,318.9c15.5,0,30.8-0.1,46.3-0.1c-3.1-9.7-6.1-19.4-9.2-29.1c-10.9,0.6-21.7,1.1-32.6,1.7
			C-223.8,300.6-225.3,309.8-226.7,318.9z"/>
		<path class="st26" d="M-226.7,318.9c15.2-0.1,30.6-0.1,45.8-0.2c-3-9.7-6.1-19.3-9.2-29c-10.8,0.6-21.5,1.1-32.2,1.7
			C-223.8,300.6-225.3,309.8-226.7,318.9z"/>
		<path class="st27" d="M-226.7,318.9c15.1-0.1,30.2-0.2,45.3-0.3c-3-9.6-6-19.3-9-28.9c-10.6,0.6-21.2,1.1-31.9,1.7
			C-223.8,300.6-225.3,309.8-226.7,318.9z"/>
		<path class="st28" d="M-226.7,318.9c15-0.1,29.9-0.3,44.8-0.4c-3-9.6-5.9-19.2-9-28.8c-10.5,0.6-21,1.2-31.5,1.7
			C-223.8,300.6-225.3,309.8-226.7,318.9z"/>
		<path class="st29" d="M-226.7,318.9c14.8-0.2,29.5-0.3,44.3-0.5c-3-9.6-5.9-19.2-8.8-28.7c-10.4,0.6-20.7,1.2-31.1,1.7
			C-223.8,300.6-225.3,309.8-226.7,318.9z"/>
		<path class="st30" d="M-226.7,318.9c14.6-0.2,29.3-0.4,43.8-0.6c-2.9-9.6-5.8-19.1-8.7-28.7c-10.3,0.6-20.5,1.2-30.7,1.8
			C-223.8,300.6-225.3,309.8-226.7,318.9z"/>
		<path class="st31" d="M-226.7,318.9c14.4-0.2,28.9-0.5,43.3-0.7c-2.9-9.5-5.7-19-8.6-28.6c-10.1,0.6-20.2,1.2-30.3,1.8
			C-223.8,300.6-225.3,309.8-226.7,318.9z"/>
		<path class="st32" d="M-226.7,318.9c14.3-0.3,28.6-0.5,42.9-0.8c-2.8-9.5-5.7-19-8.5-28.5c-10,0.6-20,1.2-30,1.8
			C-223.8,300.6-225.3,309.8-226.7,318.9z"/>
		<path class="st33" d="M-226.7,318.9c14.2-0.3,28.2-0.6,42.4-0.9c-2.8-9.5-5.6-18.9-8.4-28.4c-9.9,0.6-19.7,1.2-29.6,1.8
			C-223.8,300.6-225.3,309.8-226.7,318.9z"/>
		<path class="st34" d="M-226.7,318.9c13.9-0.3,28-0.7,41.9-1c-2.7-9.4-5.6-18.9-8.3-28.3c-9.8,0.6-19.5,1.2-29.2,1.8
			C-223.8,300.6-225.3,309.8-226.7,318.9z"/>
		<path class="st35" d="M-226.7,318.9c13.8-0.4,27.6-0.7,41.4-1.1c-2.7-9.4-5.5-18.8-8.2-28.2c-9.6,0.6-19.2,1.2-28.8,1.8
			C-223.8,300.6-225.3,309.8-226.7,318.9z"/>
		<path class="st36" d="M-226.7,318.9c13.7-0.4,27.3-0.8,41-1.2c-2.7-9.4-5.4-18.8-8.1-28.2c-9.5,0.6-19,1.2-28.5,1.9
			C-223.8,300.6-225.3,309.8-226.7,318.9z"/>
		<path class="st37" d="M-226.7,318.9c13.5-0.4,26.9-0.9,40.4-1.3c-2.7-9.4-5.3-18.7-7.9-28.1c-9.4,0.6-18.7,1.2-28.1,1.9
			C-223.8,300.6-225.3,309.8-226.7,318.9z"/>
		<path class="st38" d="M-226.7,318.9c13.3-0.5,26.7-0.9,39.9-1.4c-2.6-9.3-5.3-18.7-7.9-28c-9.2,0.6-18.5,1.3-27.7,1.9
			C-223.8,300.6-225.3,309.8-226.7,318.9z"/>
		<path class="st39" d="M-226.7,318.9c13.1-0.5,26.3-1,39.5-1.5c-2.6-9.3-5.2-18.6-7.7-27.9c-9.1,0.6-18.2,1.3-27.3,1.9
			C-223.8,300.6-225.3,309.8-226.7,318.9z"/>
		<path class="st40" d="M-226.7,318.9c13-0.5,26-1.1,39-1.6c-2.5-9.3-5.1-18.5-7.7-27.8c-9,0.6-18,1.3-26.9,1.9
			C-223.8,300.6-225.3,309.8-226.7,318.9z"/>
		<path class="st41" d="M-226.7,318.9c12.9-0.6,25.6-1.1,38.5-1.7c-2.5-9.2-5.1-18.5-7.5-27.7c-8.9,0.6-17.7,1.3-26.6,1.9
			C-223.8,300.6-225.3,309.8-226.7,318.9z"/>
		<path class="st42" d="M-226.7,318.9c12.7-0.6,25.4-1.2,38.1-1.8c-2.5-9.2-5-18.4-7.4-27.6c-8.7,0.7-17.5,1.3-26.2,2
			C-223.8,300.6-225.3,309.8-226.7,318.9z"/>
		<path class="st43" d="M-226.7,318.9c12.5-0.6,25.1-1.3,37.6-1.9c-2.5-9.2-4.9-18.4-7.4-27.6c-8.6,0.7-17.2,1.3-25.8,2
			C-223.8,300.6-225.3,309.8-226.7,318.9z"/>
		<path class="st44" d="M-226.7,318.9c12.4-0.7,24.7-1.3,37.1-2c-2.4-9.2-4.8-18.3-7.2-27.5c-8.4,0.7-17,1.3-25.4,2
			C-223.8,300.6-225.3,309.8-226.7,318.9z"/>
		<path class="st45" d="M-226.7,318.9c12.2-0.7,24.4-1.4,36.5-2.1c-2.4-9.1-4.8-18.3-7.1-27.4c-8.4,0.7-16.7,1.3-25.1,2
			C-223.8,300.6-225.3,309.8-226.7,318.9z"/>
		<path class="st46" d="M-226.7,318.9c12.1-0.7,24.1-1.5,36.1-2.2c-2.3-9.1-4.7-18.2-7-27.3c-8.2,0.7-16.5,1.3-24.7,2
			C-223.8,300.6-225.3,309.8-226.7,318.9z"/>
		<path class="st47" d="M-226.7,318.9c11.8-0.8,23.8-1.5,35.6-2.3c-2.3-9.1-4.6-18.1-6.9-27.2c-8.1,0.7-16.2,1.4-24.3,2
			C-223.8,300.6-225.3,309.8-226.7,318.9z"/>
		<path class="st48" d="M-226.7,318.9c11.7-0.8,23.4-1.6,35.1-2.4c-2.2-9-4.6-18.1-6.8-27.1c-7.9,0.7-16,1.4-23.9,2.1
			C-223.8,300.6-225.3,309.8-226.7,318.9z"/>
		<path class="st49" d="M-226.7,318.9c11.6-0.8,23.1-1.7,34.7-2.5c-2.2-9-4.5-18-6.7-27.1c-7.9,0.7-15.7,1.4-23.5,2.1
			C-223.8,300.6-225.3,309.8-226.7,318.9z"/>
		<path class="st50" d="M-226.7,318.9c11.4-0.9,22.8-1.8,34.2-2.6c-2.2-9-4.4-18-6.6-27c-7.7,0.7-15.5,1.4-23.2,2.1
			C-223.8,300.6-225.3,309.8-226.7,318.9z"/>
		<path class="st51" d="M-226.7,318.9c11.2-0.9,22.5-1.8,33.7-2.7c-2.2-9-4.3-17.9-6.5-26.9c-7.6,0.7-15.2,1.4-22.8,2.1
			C-223.8,300.6-225.3,309.8-226.7,318.9z"/>
		<path class="st52" d="M-226.7,318.9c11.1-0.9,22.1-1.9,33.2-2.8c-2.1-8.9-4.3-17.9-6.4-26.8c-7.4,0.7-14.9,1.4-22.4,2.1
			C-223.8,300.6-225.3,309.8-226.7,318.9z"/>
		<path class="st53" d="M-226.7,318.9c10.9-1,21.8-2,32.7-2.9c-2.1-8.9-4.2-17.8-6.3-26.7c-7.4,0.7-14.7,1.4-22,2.1
			C-223.8,300.6-225.3,309.8-226.7,318.9z"/>
		<path class="st54" d="M-226.7,318.9c10.8-1,21.5-2,32.2-3c-2-8.9-4.1-17.8-6.1-26.6c-7.2,0.7-14.4,1.4-21.7,2.1
			C-223.8,300.6-225.3,309.8-226.7,318.9z"/>
		<path class="st55" d="M-226.7,318.9c10.5-1,21.2-2.1,31.7-3.1c-2-8.8-4-17.7-6.1-26.5c-7.1,0.7-14.2,1.4-21.3,2.2
			C-223.8,300.6-225.3,309.8-226.7,318.9z"/>
		<path class="st56" d="M-226.7,318.9c10.4-1.1,20.8-2.2,31.3-3.2c-1.9-8.8-4-17.6-5.9-26.5c-6.9,0.7-13.9,1.5-20.9,2.2
			C-223.8,300.6-225.3,309.8-226.7,318.9z"/>
		<path class="st57" d="M-226.7,318.9c10.3-1.1,20.5-2.2,30.8-3.3c-1.9-8.8-3.9-17.6-5.9-26.4c-6.9,0.7-13.6,1.5-20.5,2.2
			C-223.8,300.6-225.3,309.8-226.7,318.9z"/>
		<path class="st58" d="M-226.7,318.9c10.1-1.1,20.2-2.3,30.3-3.4c-1.9-8.8-3.8-17.5-5.7-26.3c-6.7,0.7-13.4,1.5-20.2,2.2
			C-223.8,300.6-225.3,309.8-226.7,318.9z"/>
		<path class="st59" d="M-226.7,318.9c9.9-1.2,19.9-2.4,29.8-3.5c-1.9-8.7-3.8-17.5-5.6-26.2c-6.6,0.7-13.1,1.5-19.8,2.2
			C-223.8,300.6-225.3,309.8-226.7,318.9z"/>
		<path class="st60" d="M-226.7,318.9c9.8-1.2,19.5-2.4,29.3-3.6c-1.8-8.7-3.7-17.4-5.5-26.1c-6.4,0.7-12.9,1.5-19.4,2.2
			C-223.8,300.6-225.3,309.8-226.7,318.9z"/>
		<path class="st61" d="M-226.7,318.9c9.6-1.2,19.2-2.5,28.8-3.7c-1.8-8.7-3.6-17.4-5.4-26c-6.4,0.8-12.6,1.5-19,2.3
			C-223.8,300.6-225.3,309.8-226.7,318.9z"/>
		<path class="st62" d="M-226.7,318.9c9.5-1.3,18.9-2.6,28.3-3.8c-1.8-8.7-3.5-17.3-5.3-26c-6.2,0.8-12.4,1.5-18.6,2.3
			C-223.8,300.6-225.3,309.8-226.7,318.9z"/>
		<path class="st63" d="M-226.7,318.9c9.3-1.3,18.6-2.6,27.9-3.9c-1.7-8.6-3.5-17.2-5.2-25.9c-6.1,0.8-12.1,1.5-18.3,2.3
			C-223.8,300.6-225.3,309.8-226.7,318.9z"/>
		<path class="st64" d="M-226.7,318.9c9.1-1.3,18.3-2.7,27.4-4c-1.7-8.6-3.4-17.2-5.1-25.8c-5.9,0.8-11.9,1.5-17.8,2.3
			C-223.8,300.6-225.3,309.8-226.7,318.9z"/>
		<path class="st65" d="M-226.7,318.9c9-1.4,17.9-2.8,26.9-4.1c-1.7-8.6-3.3-17.1-5-25.7c-5.9,0.8-11.6,1.5-17.5,2.3
			C-223.8,300.6-225.3,309.8-226.7,318.9z"/>
		<path class="st66" d="M-226.7,318.9c8.8-1.4,17.6-2.8,26.4-4.2c-1.7-8.5-3.2-17.1-4.9-25.6c-5.7,0.8-11.4,1.6-17.1,2.3
			C-223.8,300.6-225.3,309.8-226.7,318.9z"/>
		<path class="st67" d="M-226.7,318.9c8.7-1.4,17.3-2.9,25.9-4.3c-1.6-8.5-3.2-17-4.8-25.5c-5.6,0.8-11.1,1.6-16.8,2.4
			C-223.8,300.6-225.3,309.8-226.7,318.9z"/>
		<path class="st68" d="M-226.7,318.9c8.5-1.5,17-3,25.4-4.4c-1.6-8.5-3.1-17-4.7-25.5c-5.4,0.8-10.9,1.6-16.3,2.4
			C-223.8,300.6-225.3,309.8-226.7,318.9z"/>
		<path class="st69" d="M-226.7,318.9c8.3-1.5,16.6-3,24.9-4.5c-1.5-8.5-3-16.9-4.6-25.4c-5.3,0.8-10.6,1.6-16,2.4
			C-223.8,300.6-225.3,309.8-226.7,318.9z"/>
		<path class="st70" d="M-226.7,318.9c8.2-1.5,16.3-3.1,24.5-4.6c-1.5-8.4-3-16.9-4.5-25.3c-5.2,0.8-10.4,1.6-15.6,2.4
			C-223.8,300.6-225.3,309.8-226.7,318.9z"/>
		<path class="st71" d="M-226.7,318.9c8-1.6,16-3.2,24-4.7c-1.4-8.4-2.9-16.8-4.3-25.2c-5.1,0.8-10.1,1.6-15.2,2.4
			C-223.8,300.6-225.3,309.8-226.7,318.9z"/>
		<path class="st72" d="M-226.7,318.9c7.8-1.6,15.7-3.2,23.5-4.8c-1.4-8.4-2.8-16.7-4.3-25.1c-5,0.8-9.9,1.6-14.9,2.4
			C-223.8,300.6-225.3,309.8-226.7,318.9z"/>
		<path class="st73" d="M-226.7,318.9c7.7-1.6,15.3-3.3,23-4.9c-1.4-8.3-2.7-16.7-4.1-25c-4.8,0.8-9.7,1.6-14.4,2.5
			C-223.8,300.6-225.3,309.8-226.7,318.9z"/>
		<path class="st74" d="M-226.7,318.9c7.5-1.7,15-3.4,22.5-5c-1.4-8.3-2.7-16.6-4-24.9c-4.7,0.8-9.4,1.6-14.1,2.5
			C-223.8,300.6-225.3,309.8-226.7,318.9z"/>
		<path class="st75" d="M-226.7,318.9c7.4-1.7,14.7-3.4,22-5.1c-1.3-8.3-2.6-16.6-3.9-24.9c-4.6,0.8-9.2,1.7-13.7,2.5
			C-223.8,300.6-225.3,309.8-226.7,318.9z"/>
		<path class="st76" d="M-226.7,318.9c7.2-1.7,14.4-3.5,21.5-5.2c-1.3-8.3-2.5-16.5-3.8-24.8c-4.5,0.8-8.9,1.7-13.4,2.5
			C-223.8,300.6-225.3,309.8-226.7,318.9z"/>
		<path class="st77" d="M-226.7,318.9c7-1.8,14-3.6,21.1-5.3c-1.2-8.2-2.5-16.5-3.7-24.7c-4.3,0.8-8.7,1.7-12.9,2.5
			C-223.8,300.6-225.3,309.8-226.7,318.9z"/>
		<path class="st78" d="M-226.7,318.9c6.9-1.8,13.7-3.6,20.6-5.4c-1.2-8.2-2.4-16.4-3.6-24.6c-4.2,0.8-8.4,1.7-12.6,2.5
			C-223.8,300.6-225.3,309.8-226.7,318.9z"/>
		<path class="st79" d="M-226.7,318.9c6.7-1.8,13.4-3.7,20.1-5.5c-1.2-8.2-2.3-16.3-3.5-24.5c-4,0.8-8.2,1.7-12.2,2.5
			C-223.8,300.6-225.3,309.8-226.7,318.9z"/>
		<path class="st80" d="M-226.7,318.9c6.5-1.9,13.1-3.8,19.6-5.6c-1.2-8.1-2.2-16.3-3.4-24.4c-4,0.9-7.9,1.7-11.8,2.6
			C-223.8,300.6-225.3,309.8-226.7,318.9z"/>
		<path class="st81" d="M-226.7,318.9c6.4-1.9,12.8-3.8,19.1-5.7c-1.1-8.1-2.2-16.2-3.3-24.4c-3.8,0.9-7.7,1.7-11.4,2.6
			C-223.8,300.6-225.3,309.8-226.7,318.9z"/>
		<polygon class="st82" points="-226.7,318.9 -208.1,313.1 -211.3,288.8 -222.3,291.4 		"/>
	</g>
	<polygon class="st37" points="-232.2,252.7 -185.6,246.6 -165.4,310 -226.7,318.9 -274.9,303.3 -330.5,316.2 -308.5,251.5 
		-268.2,238.6 	"/>
	<path class="st0" d="M-274.9,302.9c-9.2,2.1-18.4,4.3-27.6,6.4c-9.2,2.2-18.3,4.3-27.6,6.4c3.6-10.6,7.3-21.3,10.9-31.9
		s7.2-21.3,10.9-32c6.6-2.1,13.4-4.2,20-6.4c6.6-2.1,13.4-4.3,20-6.4c-1.1,10.7-2.2,21.3-3.3,32
		C-272.6,281.6-273.8,292.2-274.9,302.9z"/>
	<path class="st83" d="M-274.7,301.1c-8.6,2-17.3,4-25.9,6.1c-8.6,2-17.2,4-25.9,6.1c3.3-10.1,6.6-20.1,9.9-30.2s6.6-20.1,9.9-30.2
		c6.4-2,12.7-4,19.1-6.1c6.4-2,12.7-4.1,19.1-6.1c-1.1,10.1-2.1,20.1-3.2,30.2C-272.6,281-273.7,291.1-274.7,301.1z"/>
	<path class="st0" d="M-273.8,292.4c-3.3,2.2-6.8,4.5-10.2,6.7c-3.5,2.2-7,4.5-10.5,6.7c2-0.5,4.1-1,6.1-1.4
		c2.5-1.5,4.8-3.1,7.3-4.6c2.4-1.5,4.8-3.1,7.1-4.7C-273.9,294.2-273.9,293.3-273.8,292.4z"/>
	<path class="st0" d="M-271.1,266.8c-7.4,2-14.7,4-22,6.1c-7.4,2-14.7,4-22,6.1c-0.2,0.7-0.4,1.4-0.7,2.1c7.4-2,14.8-4,22.2-6.1
		c7.4-2,14.8-4.1,22.2-6.1C-271.3,268.2-271.2,267.5-271.1,266.8z"/>
	<path class="st0" d="M-271.3,269c-2.1,0-4.1,0-6.2,0c-0.7,0.8-1.4,1.5-2.1,2.3c2.7,0,5.3,0.1,8.1,0.1
		C-271.5,270.5-271.4,269.7-271.3,269z"/>
	<path class="st0" d="M-279.1,298.7c0.8-0.8,1.6-1.5,2.3-2.3c-5.3-0.7-10.7-1.3-15.8-2c-5.1-0.6-10-1.3-14.9-2
		c-0.8,0.8-1.7,1.5-2.5,2.3c4.9,0.7,9.9,1.3,15,2C-289.8,297.4-284.6,298.1-279.1,298.7z"/>
	<path class="st0" d="M-295.8,294.4c0.3,0.6,0.6,1.1,1,1.6c3.8-1.9,7.4-3.7,11-5.6s7.2-3.7,10.8-5.6c0-0.2,0.1-0.4,0.1-0.6
		c-0.3-0.4-0.6-0.8-0.9-1.2c-3.6,1.9-7.2,3.8-10.8,5.7C-288.3,290.6-292.1,292.5-295.8,294.4z"/>
	<path class="st0" d="M-318.4,289c5.6-2.1,11-4.2,16.5-6.3c5.4-2.1,10.8-4.2,16.2-6.3c0-0.7,0-1.3,0-2c-5.2,2.1-10.5,4.2-15.8,6.3
		c-5.3,2.1-10.8,4.1-16.2,6.2C-318,287.6-318.2,288.3-318.4,289z"/>
	<path class="st0" d="M-292.4,286.6c0.8-0.7,1.5-1.5,2.3-2.3c-2-0.5-4-1-5.9-1.5s-3.8-1-5.6-1.5c-0.8,0.8-1.6,1.5-2.4,2.3
		c1.9,0.5,3.8,1,5.7,1.5C-296.4,285.6-294.5,286.1-292.4,286.6z"/>
	<path class="st0" d="M-269.3,249.5c-6.6,1.1-13.1,2.2-19.5,3.2c-6.4,1.1-12.6,2.2-18.9,3.2c-0.2,0.7-0.4,1.4-0.7,2.1
		c6.3-1.1,12.6-2.2,19.1-3.2c6.5-1.1,13.1-2.2,19.7-3.2C-269.5,250.9-269.4,250.2-269.3,249.5z"/>
	<path class="st0" d="M-292,272.3c0.3,0.5,0.6,1.1,0.9,1.6c3.8-3.3,7.4-6.5,11-9.8c3.5-3.2,6.9-6.5,10.3-9.8
		c0.1-0.9,0.2-1.9,0.3-2.8c-3.5,3.5-7.1,7-10.8,10.4C-284.1,265.4-288,268.9-292,272.3z"/>
	<path class="st0" d="M-278.8,262.4c0.9-0.8,1.7-1.7,2.5-2.5c-5.9,0.8-11.7,1.7-17.4,2.6c-5.7,0.9-11.3,1.8-17,2.7
		c-0.2,0.7-0.5,1.5-0.7,2.2c5.3-0.8,10.7-1.7,16-2.5C-289.8,264-284.3,263.2-278.8,262.4z"/>
	<path class="st0" d="M-315.2,279.1c6.4-5.7,12.5-11.4,18.3-17.2c5.6-5.7,11-11.5,16.3-17.3c-1,0.3-2,0.6-3,1
		c-4.7,5.1-9.5,10.2-14.5,15.3c-5.1,5.1-10.5,10.2-16.1,15.3C-314.5,277.1-314.9,278.1-315.2,279.1z"/>
	<path class="st0" d="M-286.9,269.5c0.9-0.8,1.7-1.7,2.7-2.5c-3.8,0.5-7.5,1-11.2,1.6c-3.7,0.5-7.4,1-11,1.6
		c-0.9,0.8-1.9,1.7-2.8,2.5c3.7-0.5,7.4-1,11-1.5C-294.5,270.6-290.8,270-286.9,269.5z"/>
	<path class="st0" d="M-270.1,257.3c-2.6,0.8-5.2,1.5-7.8,2.3c-1.2,1.1-2.5,2.2-3.7,3.3c1.9-0.5,3.8-1.1,5.6-1.6
		c1.9-0.5,3.8-1.1,5.6-1.6C-270.3,258.8-270.2,258-270.1,257.3z"/>
	<path class="st0" d="M-268.6,242.9c-2.3,0.4-4.6,0.9-6.9,1.3c-2.3,0.5-4.5,0.9-6.9,1.3c-0.8,0.8-1.6,1.7-2.4,2.5
		c2.7-0.5,5.3-1,7.9-1.5s5.3-1,8-1.5C-268.7,244.3-268.7,243.6-268.6,242.9z"/>
	<path class="st0" d="M-273.1,282.4c0.1,0.1,0.2,0.3,0.3,0.4c0-0.2,0.1-0.4,0.1-0.6C-272.9,282.2-272.9,282.3-273.1,282.4z"/>
	<path class="st84" d="M-277.3,261.6c-3.6,3.3-7.3,6.6-11,9.9c2.9-0.8,5.8-0.4,8.6-1.2c2.9-0.8,5.7-2.5,8.6-3.3
		c0.3-2.4,0.5-5.1,0.8-7.5C-272.7,260.3-275,260.9-277.3,261.6z"/>
	<path class="st84" d="M-299.7,281.9c3.1,0.8,6.3,1.7,9.5,2.5c3.4-1.7,7.1-3.7,10.5-5.4c-1.9-0.9-4.3-1.5-6.1-2.4
		c-2.3,0.9-4.6,1.8-6.9,2.7C-295,280.1-297.3,281-299.7,281.9z"/>
	<path class="st85" d="M-269.6,251.6c-1.4,1.4-2.8,2.8-4.3,4.2c-3.2,0.5-6.4,1-9.6,1.5c1.2-1.3,2.5-2.7,3.8-4
		C-276.4,252.7-273,252.2-269.6,251.6z"/>
	<path class="st84" d="M-308.1,295c2.2,0.3,4.3,0.6,6.5,0.9c2.2,0.3,4.4,0.6,6.6,0.9c-2.5,1.6-5.1,3.3-7.7,4.9
		c-2.2-0.5-4.5-1-6.6-1.5s-4.3-1-6.4-1.5C-313.2,297.4-310.6,296.2-308.1,295z"/>
	<path class="st84" d="M-292.8,255.5c-2.7,2.7-5.4,5.5-8.2,8.2c-3.2,0.5-6.4,1-9.7,1.5c0.8-2.4,1.5-4.7,2.3-7.1
		c2.5-0.4,5.1-0.9,7.7-1.3C-298,256.3-295.5,255.9-292.8,255.5z"/>
	<path class="st0" d="M-289.2,262.3c-1.2,0.2-2.3,0.4-3.5,0.5c-2.3,2.5-4.7,5-7.1,7.4c-2.5,2.5-5,4.9-7.5,7.4c1.3-0.3,2.7-0.5,4-0.8
		c2.5-2.4,4.8-4.8,7.2-7.3C-293.7,267.2-291.4,264.7-289.2,262.3z"/>
	<path class="st85" d="M-300.8,265.7c-1.4,1.4-2.9,2.8-4.4,4.2c2.2-0.3,4.4-0.6,6.6-0.9c1.4-1.4,2.7-2.8,4-4.2
		C-296.6,265.1-298.7,265.4-300.8,265.7z"/>
	<path class="st37" d="M-226.7,318.6c-8-2.6-16-5.2-24.1-7.8c-8-2.6-16-5.2-24-7.8c0.6-5.4,1.2-10.8,1.7-16.2
		c0.7,2.3,1.2,4.7,1.5,7.2c1.2,0.3,2.3,0.6,3.5,0.8c-0.6-5.3-2.2-10-4.3-14.1l-0.2,2.3l1.2-12c1.1-10.6,2.2-21.3,3.3-32
		c6,2.3,12,4.7,18,7c6,2.3,12,4.7,18,7c0.9,10.9,1.8,21.9,2.7,32.8C-228.5,296.7-227.6,307.6-226.7,318.6z"/>
	<path class="st86" d="M-226.9,316.8c-7.9-2.6-16-5.2-23.9-7.8c-7.9-2.6-16-5.2-23.9-7.8c0.5-4.8,1-9.6,1.5-14.4
		c0.7,2.3,1.2,4.6,1.5,7.2c1.2,0.3,2.3,0.6,3.5,0.8c-0.6-5.3-2.2-10-4.3-14.1l1-9.7c1.1-10.1,2.1-20.1,3.2-30.2
		c6.1,2.4,12.1,4.7,18.1,7.1c6.1,2.4,12.1,4.7,18.2,7.1c0.9,10.3,1.7,20.6,2.6,31C-228.6,296.1-227.7,306.4-226.9,316.8z"/>
	<path class="st37" d="M-229.7,282.9c-6.7,1.7-13.7,3.3-20.9,4.9c-5.9,1.3-11.9,2.4-18.1,3.6c0.1,0.9,0.4,1.7,0.4,2.6
		c6.1-1.1,11.9-2.3,17.7-3.5c7.3-1.5,14.4-3.2,21.2-4.8C-229.5,284.8-229.6,283.9-229.7,282.9L-229.7,282.9z M-271.9,292
		c-0.6,0.1-1.2,0.2-1.9,0.3c-0.1,0.9-0.2,1.8-0.3,2.7c1.4-0.3,2.7-0.5,4.1-0.8c-0.6-0.1-1.2-0.3-1.7-0.4
		C-271.8,293.3-271.8,292.6-271.9,292z"/>
	<path class="st37" d="M-229.8,281.6c-6.9-2.5-13.8-4.9-20.7-7.4c-6.9-2.5-13.8-4.9-20.7-7.4c-0.1,0.7-0.1,1.4-0.2,2.1
		c6.9,2.5,13.9,4.9,20.9,7.4c6.9,2.5,13.9,4.9,20.9,7.4C-229.7,283-229.7,282.3-229.8,281.6z"/>
	<path class="st87" d="M-229.2,288.7c-3.5-2.1-6.1-5.3-6.3-8.1c-0.1-2.8,2.1-4.3,5.3-4C-229.9,280.6-229.5,284.7-229.2,288.7z"/>
	<path class="st84" d="M-229.4,286.4c-1.9-1.4-3.2-3.2-3.3-4.8c-0.1-1.6,0.9-2.6,2.7-2.7C-229.8,281.4-229.6,283.9-229.4,286.4z"/>
	<path class="st37" d="M-244.7,289.3c0.6-0.4,1.2-0.8,1.7-1.2c-4.9-3.2-9.8-6.4-14.4-9.6c-4.7-3.2-9.3-6.4-13.9-9.5
		c-0.1,0.8-0.1,1.5-0.2,2.3c4.3,3,8.7,6,13.2,9C-253.9,283.2-249.3,286.3-244.7,289.3z"/>
	<path class="st37" d="M-230.8,270c-6.6-3.4-13.1-6.9-19.6-10.3c-6.4-3.4-12.7-6.8-19-10.2c-0.1,0.7-0.1,1.4-0.2,2.1
		c6.4,3.4,12.7,6.8,19.1,10.2c6.5,3.4,13.1,6.9,19.7,10.3C-230.7,271.4-230.8,270.7-230.8,270z"/>
	<path class="st37" d="M-259.4,255.9c0.7,0.6,1.4,1.2,2.2,1.8c2.5-1.2,4.8-2.4,7.1-3.6c2.3-1.2,4.6-2.4,6.7-3.6
		c-1.1-0.4-2.2-0.8-3.2-1.2c-2,1.1-4.1,2.2-6.3,3.3S-257,254.8-259.4,255.9z"/>
	<path class="st37" d="M-261.5,270.9c0.8,0.7,1.7,1.3,2.5,2c0.9-5.1,1.7-10.3,2.5-15.4c-0.8-0.6-1.5-1.3-2.3-1.9
		C-259.8,260.6-260.7,265.8-261.5,270.9z"/>
	<path class="st37" d="M-257.3,264.4c-0.1-0.8-0.1-1.6-0.1-2.5c-2.1-0.8-4.3-1.6-6.4-2.3c-2.1-0.8-4.3-1.6-6.4-2.3
		c-0.1,0.8-0.1,1.6-0.2,2.4c2.2,0.8,4.3,1.6,6.6,2.4C-261.7,262.8-259.4,263.6-257.3,264.4z"/>
	<path class="st37" d="M-230.6,272.3c-4.8-1.8-9.5-3.7-14.2-5.5c-4.7-1.8-9.5-3.7-14.2-5.5c-0.1,0.8-0.3,1.5-0.4,2.3
		c4.8,1.9,9.7,3.7,14.5,5.6c4.8,1.8,9.7,3.7,14.5,5.6C-230.5,274-230.5,273.2-230.6,272.3z"/>
	<path class="st37" d="M-252.3,275c1.1,0.2,2.2,0.5,3.2,0.7c0-3-0.1-6-0.1-9c-1-0.2-2.1-0.3-3.1-0.4
		C-252.3,269.2-252.3,272.1-252.3,275z"/>
	<path class="st37" d="M-242,278.5c1.1,0.2,2.1,0.5,3.2,0.7c-0.1-3-0.4-6.1-0.5-9.1c-1-0.1-2-0.3-3-0.4
		C-242.2,272.6-242.1,275.5-242,278.5z"/>
	<path class="st37" d="M-251.6,254c0.7-0.4,1.3-0.8,1.9-1.2c-3.2-1.7-6.4-3.3-9.5-5c-3.2-1.6-6.3-3.3-9.4-5
		c-0.1,0.7-0.1,1.4-0.2,2.1c2.8,1.5,5.7,3,8.5,4.5C-257.4,251-254.5,252.5-251.6,254z"/>
	<path class="st37" d="M-228.1,302.3c-4.8-2.1-9.5-4.1-14.2-6.2c-4.7-2-9.4-4.1-14.1-6.2c0,0.7,0.1,1.5,0.1,2.2
		c4.7,2.1,9.4,4.1,14.2,6.1c4.8,2,9.5,4.1,14.3,6.2C-227.9,303.8-228,303-228.1,302.3z"/>
	<path class="st37" d="M-261,297.6c1.4,0.7,2.7,1.4,4.1,2.2c2.2-0.5,4.3-1.1,6.5-1.7c2.1-0.6,4.2-1.1,6.3-1.7
		c-1.4-0.7-2.7-1.4-4-2.1c-2.1,0.6-4.2,1.1-6.4,1.7C-256.7,296.5-258.8,297-261,297.6z"/>
	<path class="st87" d="M-272.6,280.6c2.1,4.1,3.8,8.8,4.3,14.1c-1.2-0.3-2.3-0.6-3.5-0.8c-0.3-2.5-0.8-4.9-1.5-7.2
		C-273,284.7-272.8,282.7-272.6,280.6z"/>
	<path class="st37" d="M-272.8,282.8L-272.8,282.8l0.1-0.4C-272.8,282.5-272.8,282.6-272.8,282.8L-272.8,282.8z M-270.8,284.4
		c2.7-0.3,5.3-0.7,7.9-1c3-0.4,5.9-0.8,8.8-1.2c-0.4-0.8-0.7-1.6-1.1-2.4c-2.8,0.4-5.7,0.8-8.6,1.2c-2.7,0.4-5.3,0.7-8,1
		C-271.5,282.8-271.2,283.6-270.8,284.4z"/>
	<path class="st37" d="M-259.9,306c1.2-2.1,2.4-4.2,3.6-6.2c-1.1-0.7-2.2-1.3-3.2-2c-1.4,2.3-2.7,4.7-4.2,7
		C-262.5,305.1-261.2,305.5-259.9,306z"/>
	<path class="st37" d="M-228.9,292.5c-2.9-1-5.7-2-8.6-3c-2.9-1-5.7-2-8.6-3c-0.1,0.7-0.3,1.5-0.4,2.2c3,1,5.9,2.1,8.9,3.1
		c3,1,5.9,2,8.9,3.1C-228.7,294.1-228.8,293.3-228.9,292.5z"/>
	<path class="st84" d="M-258.4,291.3c2,0.9,6.1,2.7,8.1,3.5c-2.8,0.7-5.7,1.5-8.6,2.2c-2.6-1.1-5.2-2.2-7.8-3.3
		C-263.2,293.2-261.8,291.8-258.4,291.3z"/>
	<path class="st84" d="M-271.1,266.8c3.2,1.2,6.4,2.3,9.7,3.5c0.4-2.4,0.8-4.7,1.2-7.1c-1.7-0.6-3.4-1.2-5.1-1.8
		c-1.7-0.6-3.4-1.2-5.1-1.8C-270.6,262-270.8,264.4-271.1,266.8z"/>
	<path class="st88" d="M-249.2,267.6c0,2.4,0.1,4.7,0.1,7.1c2.4,0.8,4.7,1.7,7.1,2.5c-0.1-2.3-0.2-4.7-0.3-7
		C-244.6,269.3-246.9,268.4-249.2,267.6z"/>
	<path class="st88" d="M-255.5,257c2.1-1,4.1-2.1,6.1-3.1c1.8,1,3.5,1.9,5.3,2.9c1.8,1,3.6,1.9,5.4,2.9c-1.3,1.4-2.5,2.8-3.9,4.2
		c-2.2-1.1-4.4-2.3-6.6-3.5C-251.2,259.3-253.4,258.1-255.5,257z"/>
	<path class="st88" d="M-230.6,272.3c-4.5-1.7-9-3.5-13.4-5.2c-4.5-1.7-8.9-3.4-13.4-5.2c0.2-1.2,0.4-2.3,0.5-3.5
		c4.3,2.3,8.6,4.6,12.9,6.8c4.3,2.3,8.7,4.6,13.2,6.9C-230.6,272.2-230.6,272.3-230.6,272.3z"/>
	<path class="st87" d="M-227.4,310.3c-7.1-3-14.2-5.9-21.2-8.9c-6.6-2.8-13.3-5.6-19.9-8.4c0.1,0.6,0.2,1.2,0.3,1.8
		c-0.4-0.1-0.9-0.2-1.4-0.3v0.3c7,3,13.9,5.9,21,8.9c7.1,3,14.2,5.9,21.4,8.9C-227.3,311.7-227.4,311-227.4,310.3z"/>
	<path class="st0" d="M-185.8,247c3.3,10.5,6.6,20.9,10,31.4c3.3,10.4,6.6,20.9,10,31.3c-10.2,1.5-20.4,2.9-30.5,4.4
		c-10.2,1.5-20.3,2.9-30.5,4.4c-0.9-10.9-1.8-21.8-2.7-32.7s-1.8-21.8-2.7-32.8c7.7-1,15.5-2,23.2-3C-201.3,249-193.6,248-185.8,247
		z"/>
	<path class="st83" d="M-187.9,249.1c3,9.9,6.1,19.8,9.1,29.7c3,9.9,6.1,19.8,9.1,29.7c-9.5,1.4-19.1,2.8-28.6,4.1
		c-9.5,1.4-19.1,2.8-28.6,4.1c-0.9-10.3-1.7-20.6-2.6-31c-0.9-10.3-1.7-20.6-2.6-31c7.4-1,14.7-1.9,22.1-2.9
		C-202.6,251-195.2,250.1-187.9,249.1z"/>
	<path class="st0" d="M-213.1,252.4c-2.2,5.1-4.3,10.3-6.8,15.4c-2.5,5.2-5.2,10.4-8,15.6c1.2,0.1,2.4,0.2,3.5,0.4
		c2.8-5.4,5.6-10.7,8-16c2.5-5.3,4.7-10.6,6.8-15.8C-210.7,252.1-211.9,252.2-213.1,252.4z"/>
	<path class="st0" d="M-221.2,281.1c1.4,3,4.3,8.4,12.2,13.5c3.7,2.3,8.4,4.5,14.6,6.4c6.3,1.9,14.2,3.4,23.8,4.4
		c0.3,0.8,0.5,1.7,0.8,2.5c-10.8-0.9-19.6-2.5-26.5-4.6c-6.9-2-12.1-4.4-16-7c-8.3-5.4-11.2-11.1-12.7-14.3
		C-223.8,281.7-222.5,281.4-221.2,281.1z"/>
	<path class="st0" d="M-186.5,253.5c-6.5,4.8-13.3,9.6-20.4,14.5c-7.3,5-14.9,9.9-22.8,14.9c0.1,0.9,0.1,1.9,0.2,2.8
		c7.9-5,15.7-10,23.1-15c7.2-4.8,14.1-9.7,20.7-14.5C-186,255.3-186.2,254.4-186.5,253.5z"/>
	<path class="st0" d="M-220.6,315.9c-1.1-10.3-2.2-20.5-3.3-30.8c-1.1-10.3-2.2-20.5-3.3-30.8c-1.1,0.1-2.2,0.3-3.3,0.4
		c0.9,10.3,1.9,20.6,2.8,30.9c0.9,10.3,1.9,20.6,2.8,30.9C-223.5,316.3-222.1,316.1-220.6,315.9z"/>
	<path class="st0" d="M-180.1,274.7c-8.3,1.1-16.6,2.3-24.9,3.4s-16.6,2.3-24.9,3.4c0.1,0.7,0.1,1.5,0.2,2.2
		c8.4-1.2,16.8-2.3,25.1-3.5s16.8-2.3,25.1-3.5C-179.6,276.1-179.8,275.4-180.1,274.7z"/>
	<path class="st87" d="M-226.8,275.8c3.5-0.5,11.1,1.4,11.6,4.9s-6.6,7.4-10.3,7.9s-2.5,0.2-3.7,0.2c-0.4-4-0.6-8.1-1-12.1
		C-229.2,276.2-230.3,276.3-226.8,275.8z"/>
	<path class="st84" d="M-226.6,277.9c2.7-0.4,7.5,0.9,7.8,3.3c0.3,2.4-4.3,4.9-6.9,5.3c-2.7,0.4-2.6,0.2-3.7,0
		c-0.2-2.5-0.4-5-0.6-7.5C-229,278.4-229.2,278.2-226.6,277.9z"/>
	<path class="st0" d="M-227.2,272.1c-0.1-0.7-0.1-1.4-0.1-2.2c-1.2,0-2.3,0-3.5,0c0.1,0.7,0.1,1.5,0.1,2.2
		C-229.5,272.1-228.3,272.1-227.2,272.1z"/>
	<path class="st0" d="M-226.2,274.3c0.1-0.8,0.1-1.7,0.2-2.5c-1.5,0.2-3.1,0.4-4.6,0.5c0.1,0.8,0.1,1.6,0.2,2.5
		C-229,274.6-227.6,274.5-226.2,274.3z"/>
	<path class="st0" d="M-223,304.2c-0.1-0.7-0.3-1.4-0.4-2.1c-1.6,0.1-3.1,0.2-4.6,0.3c0.1,0.7,0.1,1.4,0.1,2.2
		C-226.3,304.4-224.7,304.3-223,304.2z"/>
	<path class="st0" d="M-210.6,296.4c1.4,0.1,2.9,0.3,4.3,0.4c2.5-3.2,5-6.3,7.4-9.4c2.3-3.1,4.6-6.2,6.8-9.3
		c-1.4-0.2-2.7-0.3-4.1-0.5c-2.2,3.1-4.6,6.2-6.9,9.4C-205.5,290.1-208,293.3-210.6,296.4z"/>
	<path class="st0" d="M-202.1,313.2c-1-2.9-1.9-5.9-2.9-8.9s-1.9-5.9-2.8-8.9c-1.4,0.3-2.9,0.6-4.3,0.9c0.9,2.9,1.7,5.9,2.6,8.8
		s1.8,5.9,2.7,8.8C-205.2,313.6-203.7,313.4-202.1,313.2z"/>
	<path class="st0" d="M-208.4,297.7c-0.2-1-0.4-2-0.6-2.9c-2.6,1.1-5.3,2.2-7.9,3.3c-2.7,1.1-5.3,2.2-8.1,3.3c0.1,1,0.3,2,0.4,3
		c2.7-1.1,5.5-2.2,8.2-3.3C-213.7,299.9-211,298.8-208.4,297.7z"/>
	<path class="st0" d="M-224.3,294.3c0.3-0.8,0.5-1.7,0.8-2.5c-1.8,0.3-3.6,0.5-5.4,0.8c0.1,0.8,0.1,1.6,0.2,2.4
		C-227.2,294.7-225.7,294.5-224.3,294.3z"/>
	<path class="st0" d="M-214.4,258.9c0.2,0.8,0.4,1.6,0.6,2.3c3.8-0.3,7.4-0.6,11.2-0.9s7.4-0.6,11.2-1c0.8-0.8,1.6-1.5,2.4-2.3
		c-4.3,0.3-8.5,0.6-12.7,0.9C-205.9,258.3-210.2,258.6-214.4,258.9z"/>
	<path class="st0" d="M-206.5,259c1.5,0.1,3,0.2,4.5,0.2c1.5-3,3-5.9,4.3-8.9c-1.6,0.2-3.2,0.4-4.8,0.6
		C-203.7,253.7-205.1,256.3-206.5,259z"/>
	<path class="st0" d="M-219.3,268.4c0.1,0.8,0.4,1.6,0.5,2.4c2.5-0.4,4.9-0.8,7.4-1.2s4.9-0.8,7.4-1.2c0.9-0.8,1.7-1.5,2.6-2.3
		c-3,0.4-6,0.8-9,1.2C-213.4,267.6-216.4,268-219.3,268.4z"/>
	<path class="st85" d="M-209.5,251.9c-0.9,2.3-1.9,4.6-2.8,6.9c2.1-0.1,4.1-0.3,6.2-0.4c1.3-2.5,2.5-4.9,3.7-7.4
		C-204.8,251.3-207.2,251.6-209.5,251.9z"/>
	<path class="st0" d="M-175.6,289c-4.2-0.6-8.4-1.3-12.4-2c-4-0.7-8.1-1.4-12.1-2c-0.5,0.7-1,1.4-1.5,2.1c4.3,0.7,8.7,1.5,13.2,2.2
		c4.5,0.7,9,1.4,13.6,2.1C-175.2,290.6-175.4,289.8-175.6,289z"/>
	<path class="st0" d="M-195.5,302.9c1.2,0.2,2.5,0.5,3.7,0.7c3.4-4.9,6.6-9.7,9.7-14.5c-1.2-0.2-2.4-0.5-3.6-0.7
		C-188.9,293.1-192.1,298-195.5,302.9z"/>
	<path class="st0" d="M-173.3,296.7c-4.6-0.9-9.2-1.8-13.8-2.7c-0.7,0.8-1.3,1.5-2,2.3c2.7,0.5,5.4,1.1,8.2,1.6s5.6,1,8.4,1.6
		C-172.8,298.5-173,297.6-173.3,296.7z"/>
	<path class="st0" d="M-185.3,305.2c1.3,0.2,2.6,0.3,3.9,0.5c2.2-3,4.3-6,6.4-9c-1.3-0.2-2.6-0.3-3.8-0.5
		C-181,299.2-183.2,302.2-185.3,305.2z"/>
	<path class="st84" d="M-187.1,296.6c-1.2,1.8-2.4,3.6-3.6,5.4c0,0,1.7,0.5,3.2,0.8c1.5,0.3,3.5,0.7,3.5,0.7
		c1.3-1.8,2.6-3.6,3.9-5.5C-182.4,297.6-184.8,297.1-187.1,296.6z"/>
	<path class="st85" d="M-229,272.1c-0.5,0.1-1.1,0.1-1.6,0.2c0-0.1,0-0.1,0-0.2C-230.1,272.2-229.5,272.2-229,272.1z"/>
	<polygon class="st84" points="-185.7,256.2 -199,265.7 -196.4,277 -180.1,274.7 	"/>
	<polygon class="st0" points="-201.1,266.3 -198,277.6 -195.9,277.3 -199,264.9 	"/>
	<path class="st87" d="M-186.5,253.9l0.8,2.7c-11.1,8.2-22,14.7-33.5,22.1c-0.7-0.6-1.9-1.1-3-1.4
		C-210,269.1-198.3,262.2-186.5,253.9z"/>
	<path class="st87" d="M-185.7,256.2c-1.2,0.8-2.3,1.7-3.5,2.5l0,0C-188,257.9-186.8,257.1-185.7,256.2L-185.7,256.2z M-189.2,255.5
		L-189.2,255.5c0.9-0.7,1.8-1.3,2.7-1.9C-187.4,254.2-188.3,254.8-189.2,255.5z M-189.2,258.8c-3.6,2.6-7.2,5.1-10.8,7.7l0,0
		C-196.3,263.8-192.7,261.3-189.2,258.8L-189.2,258.8L-189.2,258.8z M-189.2,255.4L-189.2,255.4c-0.9,0.7-1.7,1.3-2.5,1.9h-0.1
		C-191,256.7-190,256.1-189.2,255.4L-189.2,255.4z M-200,263.2c1.7-1.2,3.3-2.4,5-3.5h-0.2c-1.6,1.1-3.2,2.2-4.8,3.3V263.2
		L-200,263.2z M-200,266.4c-4.3,2.9-8.5,5.8-12.9,8.7l0,0c2.2-1.4,4.3-2.9,6.5-4.3C-204.2,269.3-202.1,267.8-200,266.4L-200,266.4
		L-200,266.4z M-200,263c-1.7,1.1-3.3,2.3-5,3.4l0.4-0.1C-203,265.2-201.5,264.2-200,263L-200,263L-200,263z M-212.8,272
		c1.5-1,3-2,4.5-3l-0.4,0.1c-1.3,0.9-2.7,1.8-4,2.7L-212.8,272L-212.8,272z M-212.8,275.1c-1.4,1-3,1.9-4.4,2.9h-0.1
		C-215.8,277-214.3,276-212.8,275.1L-212.8,275.1L-212.8,275.1z M-212.8,271.8c-2.4,1.6-4.8,3.2-7.2,4.8h0.1
		C-217.5,275-215.2,273.5-212.8,271.8L-212.8,271.8L-212.8,271.8z"/>
	<path class="st87" d="M-229.7,282.9L-229.7,282.9v0.2V282.9L-229.7,282.9z M-232.1,283.5c-13.9,3.3-27.8,6.3-41.7,8.8l-0.3,2.7
		c14.5-2.6,29.2-5.6,44-9.2C-231,285.2-231.6,284.4-232.1,283.5z"/>
	<polygon class="st87" points="-273.8,292.4 -274.1,295.1 -288.5,304.4 -294.6,305.8 	"/>
	<polygon class="st87" points="-315,278.9 -315.8,281.1 -271.3,269 -271,266.9 	"/>
	<polygon class="st87" points="-271,266.9 -271.3,268.9 -235.2,281.8 -235,279.7 	"/>
	<path class="st87" d="M-215.6,279.6l35.5-4.9l0.6,2.1c0,0-35.4,5.4-36,5S-216.8,279.8-215.6,279.6z"/>
	<path class="st87" d="M-230.5,254.7l3.3-0.4l2.3,21.5c-0.6,0-1.3,0-1.8,0.1c-0.9,0.1-1.4,0.2-1.8,0.3L-230.5,254.7z"/>
	<path class="st87" d="M-219.9,283.6c1.8,3,4.9,7.1,10.8,11c3.7,2.3,8.4,4.5,14.6,6.4c6.3,1.9,14.2,3.4,23.8,4.4
		c0.3,0.8,0.5,1.7,0.8,2.5c-10.8-0.9-19.6-2.5-26.5-4.6c-6.9-2-12.1-4.4-16-7c-5.6-3.7-8.8-7.6-10.7-10.6
		C-221.9,285.2-220.8,284.4-219.9,283.6z"/>
	<polygon class="st87" points="-292.6,272.8 -269.6,251.6 -269.8,254.4 -287.8,271.5 	"/>
	<polygon class="st87" points="-259.9,244.1 -269.6,251.6 -269.8,254.4 -257.8,244.9 	"/>
	<polygon class="st87" points="-269.3,249.5 -307.6,256 -308.3,258.1 -269.5,251.6 	"/>
	<path class="st87" d="M-269.3,249.5c-0.1,0.7-0.2,1.4-0.3,2.2c12.8,6.9,25.8,13.7,38.9,20.4c-0.1-0.8-0.1-1.6-0.2-2.4
		C-243.8,262.9-256.5,256.2-269.3,249.5z"/>
	<polygon class="st87" points="-230.8,269.8 -228.9,269.7 -228.9,272.1 -230.6,272.2 	"/>
	<path class="st87" d="M-322.6,301.8c8-3.7,16-7.4,23.7-11.2c7-3.4,13.9-6.8,20.7-10.2c-0.6-0.4-1.2-0.9-1.8-1.2
		c-6.2,3.2-12.6,6.3-19,9.5c-7.4,3.6-15,7.2-22.8,10.8C-322.1,300.3-322.4,301-322.6,301.8z"/>
	<path class="st87" d="M-169.9,307.8c-0.1-0.7-0.3-1.4-0.4-2.1c-1.7,0.1-55.4,4.4-57.1,4.6c0.1,0.7,0.1,1.4,0.2,2.2
		C-225.4,312.3-171.7,308-169.9,307.8z"/>
	<path class="st87" d="M-293.4,272.8c1.6,0.1,3.8,0.2,6.2,0.6c2.5,0.4,5.2,1.1,7.9,2.4c2.5,1.1,4.8,2.7,6.9,4.9c-0.2,2-0.4,4-0.6,6
		c-2.1-4.4-5.5-7-9.1-8.7c-2.5-1.2-5-1.8-7.3-2.2c-2.3-0.4-4.3-0.5-5.9-0.6C-294.8,274.4-294.2,273.6-293.4,272.8z"/>
</g>
<radialGradient id="SVGID_1_" cx="2730.8372" cy="-1961.6024" r="31.3065" gradientTransform="matrix(0.2804 0 0 -9.566437e-02 -991.3326 93.9051)" gradientUnits="userSpaceOnUse">
	<stop  offset="0" style="stop-color:#000000;stop-opacity:0.4"/>
	<stop  offset="1" style="stop-color:#FFFFFF;stop-opacity:0"/>
</radialGradient>
<ellipse class="st89" cx="-225.7" cy="281.6" rx="12.4" ry="3.4"/>
<g>
	<g>
		<path class="st90" d="M-225,243.4c-6.1,0-11,4.9-11,11c0,1.3,0.3,3.1,0.8,4.2l10.2,23.6l10.2-23.7c0.4-1,0.8-2.8,0.8-4.1
			C-214,248.4-218.9,243.4-225,243.4z"/>
		<g>
			<g>
				<polygon class="st91" points="-226.2,279.5 -223.8,279.5 -225,282.3 				"/>
				<polygon class="st92" points="-226.4,279.1 -223.6,279.1 -224.8,281.9 -225.2,281.9 				"/>
				<polygon class="st93" points="-226.5,278.7 -223.5,278.7 -224.7,281.5 -225.3,281.5 				"/>
				<polygon class="st94" points="-226.7,278.3 -223.3,278.3 -224.5,281.1 -225.5,281.1 				"/>
				<polygon class="st95" points="-226.9,277.9 -223.1,277.9 -224.3,280.7 -225.7,280.7 				"/>
				<polygon class="st96" points="-227,277.5 -223,277.5 -224.1,280.3 -225.9,280.3 				"/>
				<polygon class="st97" points="-227.2,277.2 -222.8,277.2 -224,279.9 -226,279.9 				"/>
				<polygon class="st98" points="-227.4,276.8 -222.6,276.8 -223.8,279.5 -226.2,279.5 				"/>
				<polygon class="st99" points="-227.6,276.4 -222.5,276.4 -223.6,279.1 -226.4,279.1 				"/>
				<polygon class="st100" points="-227.7,276 -222.3,276 -223.5,278.7 -226.5,278.7 				"/>
				<polygon class="st101" points="-227.9,275.6 -222.1,275.6 -223.3,278.3 -226.7,278.3 				"/>
				<polygon class="st102" points="-228.1,275.2 -221.9,275.2 -223.1,277.9 -226.9,277.9 				"/>
				<polygon class="st103" points="-228.2,274.8 -221.8,274.8 -223,277.5 -227.1,277.5 				"/>
				<polygon class="st104" points="-228.4,274.4 -221.6,274.4 -222.8,277.1 -227.2,277.1 				"/>
				<polygon class="st105" points="-228.6,274 -221.4,274 -222.6,276.7 -227.4,276.7 				"/>
				<polygon class="st106" points="-228.8,273.6 -221.3,273.6 -222.4,276.3 -227.6,276.3 				"/>
				<polygon class="st107" points="-228.9,273.2 -221.1,273.2 -222.3,275.9 -227.7,275.9 				"/>
				<polygon class="st108" points="-229.1,272.8 -220.9,272.8 -222.1,275.5 -227.9,275.5 				"/>
				<polygon class="st109" points="-229.3,272.4 -220.7,272.4 -221.9,275.1 -228.1,275.1 				"/>
				<polygon class="st110" points="-229.4,272 -220.6,272 -221.8,274.8 -228.2,274.8 				"/>
				<polygon class="st111" points="-229.6,271.6 -220.4,271.6 -221.6,274.4 -228.4,274.4 				"/>
				<polygon class="st112" points="-229.8,271.2 -220.2,271.2 -221.4,274 -228.6,274 				"/>
				<polygon class="st113" points="-229.9,270.8 -220.1,270.8 -221.2,273.6 -228.8,273.6 				"/>
				<polygon class="st114" points="-230.1,270.4 -219.9,270.4 -221.1,273.2 -228.9,273.2 				"/>
				<polygon class="st115" points="-230.3,270 -219.7,270 -220.9,272.8 -229.1,272.8 				"/>
				<polygon class="st116" points="-230.5,269.6 -219.5,269.6 -220.7,272.4 -229.3,272.4 				"/>
				<polygon class="st117" points="-230.6,269.2 -219.4,269.2 -220.6,272 -229.4,272 				"/>
				<polygon class="st118" points="-230.8,268.8 -219.2,268.8 -220.4,271.6 -229.6,271.6 				"/>
				<polygon class="st119" points="-231,268.4 -219,268.4 -220.2,271.2 -229.8,271.2 				"/>
				<polygon class="st120" points="-231.1,268 -218.9,268 -220.1,270.8 -230,270.8 				"/>
				<polygon class="st121" points="-231.3,267.6 -218.7,267.6 -219.9,270.4 -230.1,270.4 				"/>
				<polygon class="st122" points="-231.5,267.2 -218.5,267.2 -219.7,270 -230.3,270 				"/>
				<polygon class="st123" points="-231.7,266.8 -218.4,266.8 -219.5,269.6 -230.5,269.6 				"/>
				<polygon class="st123" points="-231.8,266.5 -218.2,266.5 -219.4,269.2 -230.6,269.2 				"/>
				<polygon class="st124" points="-232,266.1 -218,266.1 -219.2,268.8 -230.8,268.8 				"/>
				<polygon class="st125" points="-232.2,265.7 -217.8,265.7 -219,268.4 -231,268.4 				"/>
				<polygon class="st126" points="-232.3,265.3 -217.7,265.3 -218.9,268 -231.2,268 				"/>
				<polygon class="st127" points="-232.5,264.9 -217.5,264.9 -218.7,267.6 -231.3,267.6 				"/>
				<polygon class="st128" points="-232.7,264.5 -217.3,264.5 -218.5,267.2 -231.5,267.2 				"/>
				<polygon class="st129" points="-232.9,264.1 -217.2,264.1 -218.3,266.8 -231.7,266.8 				"/>
				<polygon class="st130" points="-233,263.7 -217,263.7 -218.2,266.4 -231.8,266.4 				"/>
				<polygon class="st131" points="-233.2,263.3 -216.8,263.3 -218,266 -232,266 				"/>
				<polygon class="st131" points="-233.4,262.9 -216.6,262.9 -217.8,265.6 -232.2,265.6 				"/>
				<polygon class="st132" points="-233.5,262.5 -216.5,262.5 -217.7,265.2 -232.3,265.2 				"/>
				<polygon class="st133" points="-233.7,262.1 -216.3,262.1 -217.5,264.8 -232.5,264.8 				"/>
				<polygon class="st134" points="-233.9,261.7 -216.1,261.7 -217.3,264.5 -232.7,264.5 				"/>
				<polygon class="st135" points="-234,261.3 -216,261.3 -217.1,264.1 -232.9,264.1 				"/>
				<polygon class="st136" points="-234.2,260.9 -215.8,260.9 -217,263.7 -233,263.7 				"/>
				<polygon class="st137" points="-234.4,260.5 -215.6,260.5 -216.8,263.3 -233.2,263.3 				"/>
				<polygon class="st138" points="-234.6,260.1 -215.4,260.1 -216.6,262.9 -233.4,262.9 				"/>
				<polygon class="st139" points="-234.7,259.7 -215.3,259.7 -216.5,262.5 -233.5,262.5 				"/>
				<polygon class="st140" points="-234.9,259.3 -215.1,259.3 -216.3,262.1 -233.7,262.1 				"/>
				<polygon class="st140" points="-235.1,258.9 -214.9,258.9 -216.1,261.7 -233.9,261.7 				"/>
				<path class="st141" d="M-235.2,258.5h20.5l0,0l-1.2,2.7H-234l-1.1-2.6C-235.2,258.6-235.2,258.6-235.2,258.5z"/>
				<path class="st142" d="M-235.4,258.1h20.8c-0.1,0.2-0.1,0.3-0.2,0.4l-1,2.3h-18.4l-1-2.2C-235.3,258.5-235.3,258.3-235.4,258.1z
					"/>
				<path class="st143" d="M-235.5,257.7h21c-0.1,0.3-0.2,0.6-0.3,0.8l-0.8,1.9h-18.8l-0.8-1.8
					C-235.3,258.4-235.4,258.1-235.5,257.7z"/>
				<path class="st144" d="M-235.6,257.3h21.2c-0.1,0.5-0.3,0.9-0.4,1.2l-0.7,1.5h-19.1l-0.6-1.4
					C-235.3,258.3-235.5,257.8-235.6,257.3z"/>
				<path class="st144" d="M-235.7,256.9h21.4c-0.1,0.6-0.3,1.2-0.5,1.6l-0.5,1.1h-19.5l-0.4-1
					C-235.4,258.2-235.6,257.6-235.7,256.9z"/>
				<path class="st144" d="M-235.8,256.5h21.6c-0.1,0.8-0.3,1.5-0.6,2l-0.3,0.7h-19.8l-0.3-0.6
					C-235.4,258.1-235.6,257.3-235.8,256.5z"/>
				<path class="st145" d="M-235.9,256.2h21.7c-0.1,0.9-0.4,1.8-0.6,2.4l-0.1,0.3h-20.2l-0.1-0.2
					C-235.5,258-235.7,257.1-235.9,256.2z"/>
				<path class="st90" d="M-235.9,255.8h21.8c-0.1,1-0.4,2-0.7,2.8h-20.5C-235.6,257.7-235.8,256.7-235.9,255.8z"/>
				<path class="st90" d="M-236,255.4h21.9c-0.1,0.9-0.3,2-0.6,2.8h-20.8C-235.7,257.3-235.9,256.3-236,255.4z"/>
			</g>
			<g>
				<path class="st131" d="M-227,263.3h3.9c-0.6,0.1-1.3,0.2-2,0.2C-225.7,263.5-226.3,263.4-227,263.3z"/>
				<path class="st131" d="M-228.3,262.9h6.5c-1,0.4-2.1,0.6-3.3,0.6C-226.2,263.5-227.3,263.3-228.3,262.9z"/>
				<path class="st132" d="M-229.1,262.5h8.3c-1.2,0.6-2.7,1-4.1,1C-226.5,263.5-227.9,263.1-229.1,262.5z"/>
				<path class="st133" d="M-229.8,262.1h9.7c-1.4,0.9-3.1,1.4-4.8,1.4C-226.8,263.5-228.4,263-229.8,262.1z"/>
				<path class="st134" d="M-230.4,261.7h10.8c-1.5,1.1-3.4,1.8-5.4,1.8S-228.9,262.8-230.4,261.7z"/>
				<path class="st135" d="M-230.9,261.3h11.8c-1.6,1.4-3.6,2.2-5.9,2.2C-227.3,263.5-229.3,262.7-230.9,261.3z"/>
				<path class="st136" d="M-231.3,260.9h12.7c-1.6,1.6-3.9,2.6-6.3,2.6C-227.5,263.5-229.7,262.5-231.3,260.9z"/>
				<path class="st137" d="M-231.7,260.5h13.4c-1.2,1.3-2.8,2.3-4.7,2.8h-4.1C-228.9,262.8-230.5,261.9-231.7,260.5z"/>
				<path class="st138" d="M-232.1,260.1h14.1c-1,1.2-2.3,2.2-3.7,2.8h-6.6C-229.8,262.3-231.1,261.3-232.1,260.1z"/>
				<path class="st139" d="M-232.4,259.7h14.7c-0.8,1.1-1.9,2.1-3.2,2.8h-8.4C-230.4,261.8-231.5,260.9-232.4,259.7z"/>
				<path class="st140" d="M-232.6,259.3h15.2c-0.7,1.1-1.6,2-2.8,2.8h-9.7C-231,261.4-231.9,260.4-232.6,259.3z"/>
				<path class="st140" d="M-232.9,258.9h15.7c-0.6,1.1-1.4,2-2.4,2.8h-10.9C-231.4,260.9-232.3,260-232.9,258.9z"/>
				<path class="st141" d="M-233.1,258.5h16.1c-0.5,1.1-1.3,2-2.1,2.8H-231C-231.8,260.5-232.5,259.6-233.1,258.5z"/>
				<path class="st142" d="M-233.3,258.1h16.5c-0.5,1-1.1,2-1.9,2.8h-12.7C-232.2,260.1-232.8,259.2-233.3,258.1z"/>
				<path class="st143" d="M-233.4,257.7h16.8c-0.4,1-1,2-1.7,2.8h-13.5C-232.5,259.7-233,258.8-233.4,257.7z"/>
				<path class="st144" d="M-233.6,257.3h17.1c-0.3,1-0.9,1.9-1.5,2.8h-14.1C-232.7,259.3-233.2,258.3-233.6,257.3z"/>
				<path class="st144" d="M-233.7,256.9h17.4c-0.3,1-0.7,1.9-1.3,2.8h-14.7C-233,258.9-233.4,257.9-233.7,256.9z"/>
				<path class="st144" d="M-233.8,256.5h17.6c-0.2,1-0.6,1.9-1.2,2.8h-15.2C-233.2,258.5-233.6,257.5-233.8,256.5z"/>
				<path class="st145" d="M-233.9,256.2h17.8c-0.2,1-0.5,1.9-1,2.8h-15.7C-233.4,258.1-233.7,257.1-233.9,256.2z"/>
				<path class="st90" d="M-234,255.8h17.9c-0.1,1-0.4,1.9-0.9,2.8h-16.2C-233.5,257.7-233.8,256.7-234,255.8z"/>
				<path class="st90" d="M-234,255.4h18c-0.1,1-0.3,1.9-0.7,2.8h-16.5C-233.7,257.3-233.9,256.3-234,255.4z"/>
			</g>
		</g>
		<path class="st99" d="M-223.7,263.5c5,0,9-4.1,9-9c0-5-4.1-9-9-9c-5,0-9,4.1-9,9S-228.6,263.5-223.7,263.5z"/>
		<path class="st0" d="M-225,263.5c5,0,9-4.1,9-9c0-5-4.1-9-9-9c-5,0-9,4.1-9,9S-230,263.5-225,263.5z"/>
	</g>
	<g>
		<path class="st146" d="M-219.9,252.9l-0.9-1l-0.8-1.6v1.6l0.2,0.4h-0.2v2h0.9v1l0,0h-0.9v2.2h1.3c0.2,0,0.4-0.2,0.4-0.4V256V252.9
			z M-221.6,250.3L-221.6,250.3l-2.9-0.1v0.6h2.3l0.6,1.1L-221.6,250.3L-221.6,250.3z M-224.5,256.1h2.4v1.1c0,0.2,0.2,0.4,0.4,0.4
			l0,0v-2.2h-0.9v-1h0.9v-2h-2.9v3.7H-224.5z M-224.5,250.2h-2.8v0.1v1.6l0.6-1.1l0,0h2.3v-0.6H-224.5z M-227.3,257.6L-227.3,257.6
			c0.3,0,0.4-0.2,0.4-0.4v-1.1h2.4v-3.8h-2.9v2h0.9v1l0,0h-0.9v2.3H-227.3z M-227.3,250.3l-0.8,1.6l-0.9,1v3v0.2v1.1
			c0,0.2,0.2,0.4,0.4,0.4h1.3v-2.2h-0.9v-1h0.9v-2h-0.3l0.2-0.4v-1.7L-227.3,250.3L-227.3,250.3z"/>
	</g>
</g>
<g id="XMLID_79_">
</g>
<g id="XMLID_80_">
</g>
<g id="XMLID_81_">
</g>
<g id="XMLID_82_">
</g>
<g id="XMLID_83_">
</g>
<g id="XMLID_84_">
</g>
<g id="XMLID_85_">
</g>
<g id="XMLID_86_">
</g>
<g id="XMLID_87_">
</g>
<g id="XMLID_88_">
</g>
<g id="XMLID_89_">
</g>
<g id="XMLID_90_">
</g>
<g id="XMLID_91_">
</g>
<g id="XMLID_92_">
</g>
<g id="XMLID_93_">
</g>
</svg>
