<?xml version="1.0" encoding="utf-8"?>
<!-- Generator: Adobe Illustrator 19.0.0, SVG Export Plug-In . SVG Version: 6.00 Build 0)  -->
<svg version="1.1" id="レイヤー_1" xmlns="http://www.w3.org/2000/svg" xmlns:xlink="http://www.w3.org/1999/xlink" x="0px"
	 y="0px" viewBox="-351 81 257 400" style="enable-background:new -351 81 257 400;" xml:space="preserve">
<style type="text/css">
	.st0{fill:#313233;}
	.st1{fill:#FFFFFF;}
</style>
<g>
	<g>
		<path class="st0" d="M-222.2,462.4c0.5,1.8,1.9,2.6,3.5,2.6s2.9-0.9,3.3-2.6c7.3-36.9,28.3-121,69.6-167.5
			c23.3-26.1,45.5-54.9,45.5-92.4C-100.2,137.6-153.4,85-219,85s-118.8,52.6-118.8,117.5c0,37.5,22.3,66.3,45.5,92.4
			C-250.9,341.4-229.9,425.6-222.2,462.4z"/>
	</g>
	<path class="st1" d="M-219,303.4c-55.6,0-100.9-44.8-100.9-99.7s45.2-99.7,100.9-99.7c55.6,0,100.9,44.8,100.9,99.7
		S-163.4,303.4-219,303.4L-219,303.4z"/>
</g>
</svg>
