<?xml version="1.0" encoding="utf-8"?>
<!-- Generator: Adobe Illustrator 19.0.0, SVG Export Plug-In . SVG Version: 6.00 Build 0)  -->
<svg version="1.1" id="Camada_1" xmlns="http://www.w3.org/2000/svg" xmlns:xlink="http://www.w3.org/1999/xlink" x="0px" y="0px"
	 viewBox="253 144 245 321" style="enable-background:new 253 144 245 321;" xml:space="preserve">
<style type="text/css">
	.st0{fill:#FFFFFF;stroke:#C23A4B;stroke-width:10;stroke-miterlimit:10;}
	.st1{fill:#FFFFFF;stroke:#000000;stroke-miterlimit:10;}
	.st2{fill:none;}
	.st3{fill:none;stroke:#999999;stroke-width:2;stroke-miterlimit:10;}
</style>
<rect id="XMLID_1_" x="271.1" y="159.2" class="st0" width="213.5" height="287.5"/>
<rect id="XMLID_5_" x="414.6" y="310.6" class="st1" width="43.2" height="41.5"/>
<rect id="XMLID_4_" x="414.6" y="371.6" class="st1" width="43.2" height="41.5"/>
<rect id="XMLID_3_" x="414.6" y="249.6" class="st1" width="43.2" height="41.5"/>
<rect id="XMLID_6_" x="414.6" y="188.6" class="st1" width="43.2" height="41.5"/>
<rect id="XMLID_2_" x="297" y="187.6" class="st2" width="101.2" height="228.8"/>
<line id="XMLID_8_" class="st2" x1="308" y1="189" x2="384" y2="189"/>
<g id="XMLID_14_">
	<line id="XMLID_9_" class="st3" x1="299" y1="193" x2="375" y2="193"/>
	<line id="XMLID_10_" class="st3" x1="299" y1="202" x2="375" y2="202"/>
	<line id="XMLID_12_" class="st3" x1="299" y1="210" x2="375" y2="210"/>
	<line id="XMLID_11_" class="st3" x1="299" y1="219" x2="375" y2="219"/>
	<line id="XMLID_13_" class="st3" x1="299" y1="227" x2="375" y2="227"/>
</g>
<g id="XMLID_15_">
	<line id="XMLID_20_" class="st3" x1="299" y1="252" x2="375" y2="252"/>
	<line id="XMLID_19_" class="st3" x1="299" y1="261" x2="375" y2="261"/>
	<line id="XMLID_18_" class="st3" x1="299" y1="269" x2="375" y2="269"/>
	<line id="XMLID_17_" class="st3" x1="299" y1="278" x2="375" y2="278"/>
	<line id="XMLID_16_" class="st3" x1="299" y1="286" x2="375" y2="286"/>
</g>
<g id="XMLID_27_">
	<line id="XMLID_32_" class="st3" x1="299" y1="315" x2="375" y2="315"/>
	<line id="XMLID_31_" class="st3" x1="299" y1="324" x2="375" y2="324"/>
	<line id="XMLID_30_" class="st3" x1="299" y1="332" x2="375" y2="332"/>
	<line id="XMLID_29_" class="st3" x1="299" y1="341" x2="375" y2="341"/>
	<line id="XMLID_28_" class="st3" x1="299" y1="349" x2="375" y2="349"/>
</g>
<g id="XMLID_21_">
	<line id="XMLID_26_" class="st3" x1="299" y1="375" x2="375" y2="375"/>
	<line id="XMLID_25_" class="st3" x1="299" y1="384" x2="375" y2="384"/>
	<line id="XMLID_24_" class="st3" x1="299" y1="392" x2="375" y2="392"/>
	<line id="XMLID_23_" class="st3" x1="299" y1="401" x2="375" y2="401"/>
	<line id="XMLID_22_" class="st3" x1="299" y1="409" x2="375" y2="409"/>
</g>
<g id="XMLID_34_">
	<path id="XMLID_36_" d="M454.5,194.3c0.2,0.9-0.2,1.7-1.2,2.4c-0.8,0.6-1.6,1.2-2.4,1.7l-8.4,9.9l9.2,11.9c0.5,0.5,1,0.9,1.4,1.3
		c0.7,0.6,1,1.2,1,1.7c0,0.3-0.1,0.6-0.4,0.9c-0.4,0.4-1.6,1.1-3.8,2c-2,0.9-3.3,1.4-3.9,1.6c-1.3,0-2.1-0.5-2.4-1.5
		c-0.5-1.7-2.8-5.3-6.9-10.7l-5.8,8.4c-0.2,0.7-0.4,1.5-0.6,2.1c-0.4,1.1-0.9,1.7-1.8,1.9c-0.8,0.1-2.5-0.2-5-1
		c-2.6-0.8-4.2-1.5-4.7-2.2c-0.2-0.2-0.3-0.5-0.3-0.7c0-0.5,0.4-1.1,1.2-1.8c1.1-1,1.7-1.5,1.7-1.6l8.9-12l-8.1-11.1
		c-0.6-0.3-1.2-0.9-1.9-1.8c0-0.5,1.1-1.3,3.3-2.6c2.2-1.3,3.8-2,4.7-2.1c0.8-0.1,1.4,0.1,1.7,0.5c0.3,0.5,0.5,0.9,0.8,1.5l5.7,8.7
		l6.3-8.4c0.2-0.5,0.4-1.1,0.7-1.6c0.2-0.3,0.9-0.6,2.3-0.7c0.7,0,2.2,0.4,4.6,1.3C453.1,193.1,454.4,193.8,454.5,194.3z"/>
</g>
<g id="XMLID_33_">
	<path id="XMLID_35_" d="M454.1,255.2c0.2,0.9-0.2,1.7-1.2,2.4c-0.8,0.6-1.6,1.2-2.4,1.7l-8.4,9.9l9.2,11.9c0.5,0.5,1,0.9,1.4,1.3
		c0.7,0.6,1,1.2,1,1.7c0,0.3-0.1,0.6-0.4,0.9c-0.4,0.4-1.6,1.1-3.8,2c-2,0.9-3.3,1.4-3.9,1.6c-1.3,0-2.1-0.5-2.4-1.5
		c-0.5-1.7-2.8-5.3-6.9-10.7l-5.8,8.4c-0.2,0.7-0.4,1.5-0.6,2.1c-0.4,1.1-0.9,1.7-1.8,1.9c-0.8,0.1-2.5-0.2-5-1
		c-2.6-0.8-4.2-1.5-4.7-2.2c-0.2-0.2-0.3-0.5-0.3-0.7c0-0.5,0.4-1.1,1.2-1.8c1.1-1,1.7-1.5,1.7-1.6l8.9-12l-8.1-11.1
		c-0.6-0.3-1.2-0.9-1.9-1.8c0-0.5,1.1-1.3,3.3-2.6c2.2-1.3,3.8-2,4.7-2.1c0.8-0.1,1.4,0.1,1.7,0.5c0.3,0.5,0.5,0.9,0.8,1.5l5.7,8.7
		l6.3-8.4c0.2-0.5,0.4-1.1,0.7-1.6c0.2-0.3,0.9-0.6,2.3-0.7c0.7,0,2.2,0.4,4.6,1.3C452.7,254.1,454,254.8,454.1,255.2z"/>
</g>
<g id="XMLID_39_">
	<path id="XMLID_40_" d="M454.1,316.9c0.2,0.9-0.2,1.7-1.2,2.4c-0.8,0.6-1.6,1.2-2.4,1.7l-8.4,9.9l9.2,11.9c0.5,0.5,1,0.9,1.4,1.3
		c0.7,0.6,1,1.2,1,1.7c0,0.3-0.1,0.6-0.4,0.9c-0.4,0.4-1.6,1.1-3.8,2c-2,0.9-3.3,1.4-3.9,1.6c-1.3,0-2.1-0.5-2.4-1.5
		c-0.5-1.7-2.8-5.3-6.9-10.7l-5.8,8.4c-0.2,0.7-0.4,1.5-0.6,2.1c-0.4,1.1-0.9,1.7-1.8,1.9c-0.8,0.1-2.5-0.2-5-1
		c-2.6-0.8-4.2-1.5-4.7-2.2c-0.2-0.2-0.3-0.5-0.3-0.7c0-0.5,0.4-1.1,1.2-1.8c1.1-1,1.7-1.5,1.7-1.6l8.9-12l-8.1-11.1
		c-0.6-0.3-1.2-0.9-1.9-1.8c0-0.5,1.1-1.3,3.3-2.6c2.2-1.3,3.8-2,4.7-2.1c0.8-0.1,1.4,0.1,1.7,0.5c0.3,0.5,0.5,0.9,0.8,1.5l5.7,8.7
		l6.3-8.4c0.2-0.5,0.4-1.1,0.7-1.6c0.2-0.3,0.9-0.6,2.3-0.7c0.7,0,2.2,0.4,4.6,1.3C452.7,315.8,454,316.4,454.1,316.9z"/>
</g>
<g id="XMLID_42_">
	<path id="XMLID_43_" d="M454.1,377.2c0.2,0.9-0.2,1.7-1.2,2.4c-0.8,0.6-1.6,1.2-2.4,1.7l-8.4,9.9l9.2,11.9c0.5,0.5,1,0.9,1.4,1.3
		c0.7,0.6,1,1.2,1,1.7c0,0.3-0.1,0.6-0.4,0.9c-0.4,0.4-1.6,1.1-3.8,2c-2,0.9-3.3,1.4-3.9,1.6c-1.3,0-2.1-0.5-2.4-1.5
		c-0.5-1.7-2.8-5.3-6.9-10.7l-5.8,8.4c-0.2,0.7-0.4,1.5-0.6,2.1c-0.4,1.1-0.9,1.7-1.8,1.9c-0.8,0.1-2.5-0.2-5-1
		c-2.6-0.8-4.2-1.5-4.7-2.2c-0.2-0.2-0.3-0.5-0.3-0.7c0-0.5,0.4-1.1,1.2-1.8c1.1-1,1.7-1.5,1.7-1.6l8.9-12l-8.1-11.1
		c-0.6-0.3-1.2-0.9-1.9-1.8c0-0.5,1.1-1.3,3.3-2.6c2.2-1.3,3.8-2,4.7-2.1c0.8-0.1,1.4,0.1,1.7,0.5c0.3,0.5,0.5,0.9,0.8,1.5l5.7,8.7
		l6.3-8.4c0.2-0.5,0.4-1.1,0.7-1.6c0.2-0.3,0.9-0.6,2.3-0.7c0.7,0,2.2,0.4,4.6,1.3C452.7,376.1,454,376.8,454.1,377.2z"/>
</g>
</svg>
